<svg xmlns="http://www.w3.org/2000/svg" xmlns:ev="http://www.w3.org/2001/xml-events" xmlns:xlink="http://www.w3.org/1999/xlink" width="536.423" height="495.009" class="st24" color-interpolation-filters="sRGB" viewBox="0 0 402.318 371.257" xml:space="preserve"><style type="text/css">.st1{fill:url(#grad0-4);stroke:#3c63ac;stroke-width:.749999}.st2{fill:#3c63ac;font-family:Calibri;font-size:.833336em;font-style:italic}.st3{fill:#4672c4;stroke:#c7c8c8;stroke-width:.25}.st4{fill:#feffff;font-family:Calibri;font-size:1.00001em}.st5,.st6{stroke:#4672c4}.st5{marker-end:url(#mrkr4-14);stroke-linecap:round;stroke-linejoin:round;stroke-width:.999999}.st6{fill:#4672c4;fill-opacity:1;stroke-opacity:1;stroke-width:.28409062422264}.st7{fill:#3c63ac;font-family:Calibri;font-size:.833336em}.st8{font-size:1em}.st9{fill:none}.st10{stroke:#4672c4;stroke-linecap:round;stroke-linejoin:round;stroke-width:.999999}.st11{fill:none;stroke:none;stroke-width:.25}.st12{fill:#4672c4;font-family:Calibri;font-size:1.00001em}.st13{fill:#fff;stroke:#000;stroke-width:1}.st14{fill:#4672c4;font-family:Calibri;font-size:.833336em}.st15,.st16{stroke-width:.75}.st15{fill:#fff;stroke:#e8ebf4}.st16{stroke:none;stroke-linecap:round;stroke-linejoin:round}.st17{fill:#000;font-family:Calibri;font-size:.926422em}.st18,.st19{stroke:#d4d4d4;stroke-linecap:round;stroke-linejoin:round;stroke-width:.75}.st19{fill:#d4d4d4;stroke:none}.st20,.st21{stroke:#4672c4}.st20{marker-end:url(#mrkr4-138);stroke-linecap:round;stroke-linejoin:round;stroke-width:1}.st21{fill:#4672c4;fill-opacity:1;stroke-opacity:1;stroke-width:.28409090909091}.st22{fill:#fff;stroke:none;stroke-linecap:butt;stroke-width:7.2}.st23{fill:#3c63ac;font-family:Calibri;font-size:.666664em}.st24{fill:none;fill-rule:evenodd;font-size:12px;overflow:visible;stroke-linecap:square;stroke-miterlimit:3}</style><defs id="Patterns_And_Gradients"><linearGradient id="grad0-4" x1="0" x2="1" y1="0" y2="0" gradientTransform="rotate(60 0.5 0.5)"><stop offset="0" stop-color="#e8ebf4" stop-opacity="1"/><stop offset=".24" stop-color="#f4f5f9" stop-opacity="1"/><stop offset=".54" stop-color="#feffff" stop-opacity="1"/></linearGradient></defs><defs id="Markers"><g id="lend4"><path d="M 2 1 L 0 0 L 2 -1 L 2 1" style="stroke:none"/></g><marker id="mrkr4-14" class="st6" markerUnits="strokeWidth" orient="auto" overflow="visible" refX="0"><use transform="scale(-3.5200035296354,-3.5200035296354)" xlink:href="#lend4"/></marker><marker id="mrkr4-138" class="st21" markerUnits="strokeWidth" orient="auto" overflow="visible" refX="-7.04"><use transform="scale(-3.52,-3.52)" xlink:href="#lend4"/></marker></defs><g><title>Page-1</title><g id="shape1109-1" transform="translate(158.745,-0.749999)"><title>Rectangle</title><desc>Kernel</desc><rect width="134.038" height="206.76" x="0" y="164.497" class="st1"/><text x="54.21" y="364.26" class="st2">Kernel</text></g><g id="shape1110-6" transform="translate(-213.22,225.94) rotate(-90)"><title>Sheet.1110</title><desc>MM Host</desc><rect width="54.38" height="14.173" x="0" y="357.083" class="st3"/><text x="4.31" y="367.77" class="st4">MM Host</text></g><g id="shape1111-9" transform="translate(87.5731,-168.512)"><title>Dynamic connector.1035</title><path d="M56.29 371.26 L0 371.26 L0 364.64 L0 357.6" class="st5"/></g><g id="group1112-15" transform="translate(226.777,-311.517)"><title>Sheet.1112</title><g id="shape1113-16" transform="translate(8.63309E-13,-14.1741)"><title>Rectangle.1026</title><desc>Some component with a host role (e.g. CPU, JTAG-Avalon MM Mas...</desc><rect width="162.992" height="44.815" x="0" y="326.441" class="st1"/><text x="4" y="339.44" class="st7">Some component with a host role <tspan x="4" class="st8" dy="1.2em">(e.g. CPU, JTAG</tspan>-Avalon MM Master)</text></g><g id="shape1114-21" transform="translate(50.3149,2.84217E-13)"><title>Sheet.1114</title><desc>MM Host</desc><rect width="62.362" height="14.173" x="0" y="357.083" class="st3"/><text x="8.31" y="367.77" class="st4">MM Host</text></g></g><g id="shape1126-24" transform="translate(225.768,-222.9)"><title>Dynamic connector.1040</title><path d="M0 335.46 L0 364.22 L0 371.26" class="st5"/></g><g id="shape1127-29" transform="translate(307.568,-275.715)"><title>Dynamic connector.1042</title><path d="M0 335.46 L0 364.22 L0 371.26" class="st5"/></g><g id="shape1128-34" transform="translate(-213.22,292.554) rotate(-90)"><title>Sheet.1128</title><desc>MM Host</desc><rect width="55.275" height="14.173" x="0" y="357.083" class="st3"/><text x="4.76" y="367.77" class="st4">MM Host</text></g><g id="shape1133-37" transform="translate(48.8331,-102.794)"><title>Dynamic connector.1055</title><path d="M95.03 371.26 L0 371.26 L0 362.44 L0 355.4" class="st5"/></g><g id="shape1136-42" transform="translate(18.2641,-118.657)"><title>Sheet.1136</title><desc>MM Agent</desc><rect width="62.362" height="14.045" x="0" y="357.212" class="st3"/><text x="5.12" y="367.83" class="st4">MM Agent</text></g><g id="shape1137-45" transform="translate(0.749999,-132.292)"><title>Rectangle.1137</title><desc>Block RAM</desc><rect width="95.365" height="28.346" x="0" y="342.91" class="st1"/><text x="25.78" y="355.91" class="st7">Block RAM<tspan x="10.94" class="st8" dy="1.2em">(buffer location 2)</tspan></text></g><g id="shape1139-50" transform="translate(57.0019,-182.167)"><title>Sheet.1139</title><desc>MM Agent</desc><rect width="62.362" height="14.045" x="0" y="357.212" class="st3"/><text x="5.12" y="367.83" class="st4">MM Agent</text></g><g id="shape1140-53" transform="translate(39.4878,-195.801)"><title>Rectangle.1027</title><desc>Block RAM</desc><rect width="95.365" height="28.346" x="0" y="342.91" class="st1"/><text x="25.78" y="355.91" class="st7">Block RAM<tspan x="10.94" class="st8" dy="1.2em">(buffer location 1)</tspan></text></g><g id="group1141-58" transform="translate(67.3281,-258.7)"><title>Avalon Interconnect.1063</title><g id="shape1142-59"><title>Sheet.1142</title><path d="M0 371.26 L334.49 371.26 L0 371.26 Z" class="st9"/><path d="M0 371.26 L334.49 371.26" class="st10"/></g><g id="shape1143-62" transform="translate(-2.8777E-13,-17.0079)"><title>Sheet.1143</title><path d="M0 371.26 L334.49 371.26 L0 371.26 Z" class="st9"/><path d="M0 371.26 L334.49 371.26" class="st10"/></g><g id="shape1144-65" transform="translate(90.7086,-0.0031)"><title>Sheet.1144</title><desc>Avalon Interconnect</desc><rect width="147.402" height="17.008" x="0" y="354.249" class="st11"/><text x="24.31" y="366.35" class="st12">Avalon Interconnect</text></g></g><g id="group1190-68" transform="translate(182.609,-130.541)"><title>Sheet.1190</title><g id="shape1180-69" transform="translate(0.565175,0)"><title>Corner table.1033</title><desc>CSR</desc><path d="M87.31 370.56 a0.917278 0.691501 0 0 1 -0.917278 0.691501 L0.92 371.26 a0.917278 0.691501 0 0 1 -0.917278 -0.691501 L0 288.98 a0.917278 0.691501 0 0 1 0.917278 -0.691501 L86.39 288.29 a0.917278 0.691501 0 0 1 0.917278 0.691501 L87.31 288.98 L87.31 370.56 Z" class="st13"/><text x="36.53" y="305.96" class="st14">CSR</text></g><g id="shape1148-72" transform="translate(0.940386,-0.913654)"><title>Sheet.1148</title><desc>CSR</desc><rect width="86.368" height="81.673" x="0" y="289.584" class="st15"/><text x="35.33" y="304.38" class="st12">CSR</text></g><g id="shape1149-75" transform="translate(10.3262,-79.0756)"><title>Sheet.1149</title><desc>MM Agent</desc><rect width="62.362" height="13.653" x="0" y="357.604" class="st3"/><text x="5.12" y="368.03" class="st4">MM Agent</text></g><g id="shape1150-78" transform="translate(3.48851,-42.8205)"><title>Sheet.1150</title><desc>Start</desc><path d="M30.07 358.4 L0 358.4 L0 371.26 L30.07 371.26 L30.07 358.4" class="st16"/><text x="4.16" y="368.16" class="st17">Start</text></g><g id="shape1151-82" transform="translate(3.48851,-28.5423)"><title>Sheet.1151</title><desc>Done</desc><path d="M32.94 358.4 L0 358.4 L0 371.26 L32.94 371.26 L32.94 358.4" class="st16"/><text x="4.43" y="368.16" class="st17">Done</text></g><g id="shape1152-86" transform="translate(3.23837,-14.264)"><title>Sheet.1152</title><desc>in_vec</desc><path d="M75.16 358.4 L0 358.4 L0 371.26 L75.16 371.26 L75.16 358.4" class="st16"/><text x="5.03" y="368.16" class="st17">in_vec</text></g><g id="shape1153-90" transform="translate(1.0775,-57.8163)"><title>Sheet.1153</title><path d="M0 371.26 L85.99 371.26" class="st18"/></g><g id="shape1154-93" transform="translate(1.0775,-57.1024)"><title>Sheet.1154</title><path d="M85.99 370.54 L0 370.54 L0 371.26 L85.99 371.26 L85.99 370.54 Z" class="st19"/></g><g id="shape1155-95" transform="translate(1.0775,-43.538)"><title>Sheet.1155</title><path d="M0 371.26 L85.99 371.26" class="st18"/></g><g id="shape1156-98" transform="translate(1.0775,-42.8241)"><title>Sheet.1156</title><path d="M85.99 370.54 L0 370.54 L0 371.26 L85.99 371.26 L85.99 370.54 Z" class="st19"/></g><g id="shape1157-100" transform="translate(1.0775,-29.2597)"><title>Sheet.1157</title><path d="M0 371.26 L85.99 371.26" class="st18"/></g><g id="shape1158-103" transform="translate(1.0775,-28.5458)"><title>Sheet.1158</title><path d="M85.99 370.54 L0 370.54 L0 371.26 L85.99 371.26 L85.99 370.54 Z" class="st19"/></g><g id="shape1159-105" transform="translate(1.59872E-14,-14.9815)"><title>Sheet.1159</title><path d="M0 371.26 L79.83 371.26" class="st18"/></g><g id="shape1160-108" transform="translate(1.00024,-14.2675)"><title>Sheet.1160</title><path d="M0 327.71 L0 371.26" class="st18"/></g><g id="shape1161-111" transform="translate(1.0775,-14.2675)"><title>Sheet.1161</title><path d="M0.8 327.71 L0 327.71 L0 371.26 L0.8 371.26 L0.8 327.71 Z" class="st19"/></g><g id="shape1162-113" transform="translate(87.0703,-14.2675)"><title>Sheet.1162</title><path d="M0.8 327.71 L0 327.71 L0 371.26 L0.8 371.26 L0.8 327.71 Z" class="st19"/></g><g id="shape1163-115" transform="translate(4.09252,-2.46358)"><title>Sheet.1163</title><desc>out_vec</desc><path d="M83.81 358.4 L0 358.4 L0 371.26 L83.81 371.26 L83.81 358.4" class="st16"/><text x="5.03" y="368.16" class="st17">out_vec</text></g><g id="shape1166-119" transform="translate(0.740519,-15.4503)"><title>Sheet.1166</title><path d="M0 371.26 L86.37 371.26" class="st18"/></g><g id="shape1167-122" transform="translate(0.740519,-14.7364)"><title>Sheet.1167</title><path d="M86.37 370.54 L0 370.54 L0 371.26 L86.37 371.26 L86.37 370.54 Z" class="st19"/></g><g id="shape1168-124" transform="translate(0.740519,-1.17206)"><title>Sheet.1168</title><path d="M0 371.26 L86.37 371.26" class="st18"/></g><g id="shape1169-127" transform="translate(0.740519,-0.458142)"><title>Sheet.1169</title><path d="M86.37 370.54 L0 370.54 L0 371.26 L86.37 371.26 L86.37 370.54 Z" class="st19"/></g></g><g id="shape1191-129" transform="translate(-198.54,364.837) rotate(-90)"><title>Sheet.1191</title><desc>Streaming Sink</desc><rect width="62.362" height="30.067" x="0" y="341.189" class="st3"/><text x="6.32" y="352.62" class="st4">Streaming <tspan x="21.17" class="st8" dy="1.2em">Sink</tspan></text></g><g id="shape1192-133" transform="translate(142.649,-50.3563)"><title>Dynamic connector.1192</title><desc>Ready</desc><path d="M0 364.17 L-67.77 364.17" class="st20"/><rect width="19.98" height="9.6" x="-47.397" y="359.37" class="st22"/><text x="-47.4" y="366.57" class="st23">Ready</text></g><g id="shape1193-141" transform="translate(67.8344,-36.1831)"><title>Dynamic connector.1193</title><desc>Valid</desc><path d="M0 364.17 L67.77 364.17" class="st20"/><rect width="16.246" height="9.6" x="29.284" y="359.37" class="st22"/><text x="29.28" y="366.57" class="st23">Valid</text></g><g id="shape1194-148" transform="translate(67.8344,-22.0099)"><title>Dynamic connector.1194</title><desc>Data</desc><path d="M0 364.17 L67.77 364.17" class="st20"/><rect width="15.265" height="9.6" x="29.774" y="359.37" class="st22"/><text x="29.77" y="366.57" class="st23">Data</text></g><g id="shape1195-155" transform="translate(67.8344,-9.82089)"><title>Dynamic connector.1195</title><desc>&lt;other signals&gt;</desc><path d="M0 364.17 L67.77 364.17" class="st20"/><rect width="49.379" height="9.6" x="12.718" y="359.37" class="st22"/><text x="12.72" y="366.57" class="st23">&lt;other signals&gt;</text></g></g></svg>