<svg xmlns="http://www.w3.org/2000/svg" xmlns:ev="http://www.w3.org/2001/xml-events" xmlns:xlink="http://www.w3.org/1999/xlink" width="504.769" height="274.126" class="st8" color-interpolation-filters="sRGB" viewBox="0 0 378.577 205.594" xml:space="preserve"><style type="text/css">.st1{fill:url(#grad0-4);stroke:#3c63ac;stroke-width:.75}.st2{fill:#3c63ac;font-family:Calibri;font-size:1.5em}.st3{marker-end:url(#mrkr4-11);stroke-linecap:round;stroke-linejoin:round;stroke-width:1}.st3,.st4,.st5{stroke:#4672c4}.st4{fill:#4672c4;fill-opacity:1;stroke-opacity:1;stroke-width:.28409090909091}.st5{stroke-linecap:round;stroke-linejoin:round;stroke-width:1}.st6{fill:none;stroke:none;stroke-width:.25}.st7{fill:#4672c4;font-family:Courier New;font-size:1.00001em}.st8{fill:none;fill-rule:evenodd;font-size:12px;overflow:visible;stroke-linecap:square;stroke-miterlimit:3}</style><defs id="Patterns_And_Gradients"><linearGradient id="grad0-4" x1="0" x2="1" y1="0" y2="0" gradientTransform="rotate(60 0.5 0.5)"><stop offset="0" stop-color="#e8ebf4" stop-opacity="1"/><stop offset=".24" stop-color="#f4f5f9" stop-opacity="1"/><stop offset=".54" stop-color="#feffff" stop-opacity="1"/></linearGradient></defs><defs id="Markers"><g id="lend4"><path d="M 2 1 L 0 0 L 2 -1 L 2 1" style="stroke:none"/></g><marker id="mrkr4-11" class="st4" markerUnits="strokeWidth" orient="auto" overflow="visible" refX="-7.04"><use transform="scale(-3.52,-3.52)" xlink:href="#lend4"/></marker></defs><g><title>Page-1</title><g id="shape1000-1" transform="translate(98.5796,-0.75)"><title>Sheet.1000</title><desc>RTL Module</desc><rect width="204.094" height="204.094" x="0" y="1.5" class="st1"/><text x="113.03" y="21.7" class="st2">RTL Module</text></g><g id="shape2004-6" transform="translate(7.87096,-175.081)"><title>Dynamic connector.2004</title><path d="M0 198.51 L83.67 198.51" class="st3"/></g><g id="shape2005-12" transform="translate(7.87096,-152.404)"><title>Dynamic connector.2005</title><path d="M0 198.51 L83.67 198.51" class="st3"/></g><g id="shape2006-17" transform="translate(7.87096,-120.75)"><title>Dynamic connector.2006</title><path d="M0 212.21 L83.67 213.08" class="st3"/></g><g id="shape2007-22" transform="translate(98.5796,-84.372)"><title>Dynamic connector.2007</title><path d="M0 198.51 L-83.67 198.51" class="st3"/></g><g id="shape2008-27" transform="translate(7.87096,-61.6949)"><title>Dynamic connector.2008</title><path d="M0 198.51 L83.67 198.51" class="st3"/></g><g id="shape2009-32" transform="translate(7.87096,-39.0177)"><title>Dynamic connector.2009</title><path d="M0 198.51 L83.67 198.51" class="st3"/></g><g id="shape2011-37" transform="translate(302.674,-107.049)"><title>Dynamic connector.2011</title><path d="M0 198.51 L60.99 198.51" class="st3"/></g><g id="shape2012-42" transform="translate(370.706,-84.372)"><title>Dynamic connector.2012</title><path d="M0 198.51 L-60.99 198.51" class="st3"/></g><g id="shape2013-47" transform="translate(302.674,-39.0177)"><title>Dynamic connector.2013</title><path d="M0 198.51 L60.99 198.51" class="st3"/></g><g id="shape2014-52" transform="translate(-123.9,54.9318) rotate(-45)"><title>Straight Line.1010</title><path d="M0 205.59 L25.66 205.59" class="st5"/></g><g id="shape2015-55" transform="translate(-123.9,23.1838) rotate(-45)"><title>Straight Line.2015</title><path d="M0 205.59 L25.66 205.59" class="st5"/></g><g id="shape2016-58" transform="translate(-123.9,0.506593) rotate(-45)"><title>Straight Line.2016</title><path d="M0 205.59 L25.66 205.59" class="st5"/></g><g id="shape2017-61" transform="translate(98.5796,-174.173)"><title>Sheet.2017</title><desc>clock</desc><rect width="61.667" height="17.066" x="0" y="188.529" class="st6"/><text x="4" y="200.66" class="st7">clock</text></g><g id="shape2018-64" transform="translate(98.5796,-151.495)"><title>Sheet.2018</title><desc>reset_n</desc><rect width="72.567" height="17.066" x="0" y="188.529" class="st6"/><text x="4" y="200.66" class="st7">reset_n</text></g><g id="shape2019-67" transform="translate(98.5796,-105.065)"><title>Sheet.2019</title><desc>ivalid</desc><rect width="72.567" height="17.066" x="0" y="188.529" class="st6"/><text x="4" y="200.66" class="st7">ivalid</text></g><g id="shape2020-70" transform="translate(98.5796,-83.4639)"><title>Sheet.2020</title><desc>oready</desc><rect width="72.567" height="17.066" x="0" y="188.529" class="st6"/><text x="4" y="200.66" class="st7">oready</text></g><g id="shape2021-73" transform="translate(98.5796,-60.7867)"><title>Sheet.2021</title><desc>arg0</desc><rect width="72.567" height="17.066" x="0" y="188.529" class="st6"/><text x="4" y="200.66" class="st7">arg0</text></g><g id="shape2022-76" transform="translate(98.5796,-38.1095)"><title>Sheet.2022</title><desc>arg1</desc><rect width="72.567" height="17.066" x="0" y="188.529" class="st6"/><text x="4" y="200.66" class="st7">arg1</text></g><g id="shape2023-79" transform="translate(98.5796,-5.82348)"><title>Sheet.2023</title><desc>argn</desc><rect width="72.567" height="17.066" x="0" y="188.529" class="st6"/><text x="4" y="200.66" class="st7">argn</text></g><g id="shape2024-82" transform="translate(7.87096,-21.4429)"><title>Dynamic connector.2024</title><path d="M0 212.68 L83.67 212.68" class="st3"/></g><g id="shape2025-87" transform="translate(98.5796,-22.2355)"><title>Sheet.2025</title><desc>...</desc><rect width="72.567" height="17.066" x="0" y="188.529" class="st6"/><text x="4" y="200.66" class="st7">...</text></g><g id="shape2026-90" transform="translate(230.107,-106.141)"><title>Sheet.2026</title><desc>ovalid</desc><rect width="72.567" height="17.066" x="0" y="188.529" class="st6"/><text x="25.36" y="200.66" class="st7">ovalid</text></g><g id="shape2027-93" transform="translate(230.107,-83.4639)"><title>Sheet.2027</title><desc>iready</desc><rect width="72.567" height="17.066" x="0" y="188.529" class="st6"/><text x="25.36" y="200.66" class="st7">iready</text></g><g id="shape2028-96" transform="translate(230.107,-38.1095)"><title>Sheet.2028</title><desc>output</desc><rect width="72.567" height="17.066" x="0" y="188.529" class="st6"/><text x="25.36" y="200.66" class="st7">output</text></g><g id="shape2029-99" transform="translate(179.974,23.1838) rotate(-45)"><title>Straight Line.2029</title><path d="M0 205.59 L25.66 205.59" class="st5"/></g></g></svg>