<svg xmlns="http://www.w3.org/2000/svg" xmlns:ev="http://www.w3.org/2001/xml-events" xmlns:xlink="http://www.w3.org/1999/xlink" width="330.91" height="213.654" class="st10" color-interpolation-filters="sRGB" viewBox="0 0 248.183 160.24" xml:space="preserve"><style type="text/css">.st1{fill:url(#grad0-4);stroke:#3c63ac;stroke-width:.75}.st2{fill:#3c63ac;font-family:Calibri;font-size:.833336em;font-style:italic}.st3{fill:none;stroke:none;stroke-width:.25}.st4,.st5{fill:#4672c4}.st4{font-family:Calibri;font-size:1.00001em}.st5{stroke:#c7c8c8;stroke-width:.25}.st6{fill:#feffff;font-family:Calibri;font-size:1.00001em}.st7{marker-end:url(#mrkr4-26);stroke-linecap:round;stroke-linejoin:round;stroke-width:1}.st7,.st8,.st9{stroke:#4672c4}.st8{fill:#4672c4;fill-opacity:1;stroke-opacity:1;stroke-width:.28409090909091}.st9{stroke-linecap:round;stroke-linejoin:round;stroke-width:1}.st10{fill:none;fill-rule:evenodd;font-size:12px;overflow:visible;stroke-linecap:square;stroke-miterlimit:3}</style><defs id="Patterns_And_Gradients"><linearGradient id="grad0-4" x1="0" x2="1" y1="0" y2="0" gradientTransform="rotate(60 0.5 0.5)"><stop offset="0" stop-color="#e8ebf4" stop-opacity="1"/><stop offset=".24" stop-color="#f4f5f9" stop-opacity="1"/><stop offset=".54" stop-color="#feffff" stop-opacity="1"/></linearGradient></defs><defs id="Markers"><g id="lend4"><path d="M 2 1 L 0 0 L 2 -1 L 2 1" style="stroke:none"/></g><marker id="mrkr4-26" class="st8" markerUnits="strokeWidth" orient="auto" overflow="visible" refX="-7.04"><use transform="scale(-3.52,-3.52)" xlink:href="#lend4"/></marker></defs><g><title>Page-1</title><g id="shape1-1" transform="translate(61.7292,-0.75)"><title>Rectangle</title><desc>Kernel</desc><rect width="133.228" height="158.74" x="0" y="1.5" class="st1"/><text x="53.81" y="153.24" class="st2">Kernel</text></g><g id="shape4-6" transform="translate(61.7292,-129.569)"><title>Sheet.4</title><desc>Start</desc><rect width="36.85" height="20" x="0" y="140.24" class="st3"/><text x="4" y="153.84" class="st4">Start</text></g><g id="shape5-9" transform="translate(138.265,-129.569)"><title>Sheet.5</title><desc>Done</desc><rect width="56.693" height="20" x="0" y="140.24" class="st3"/><text x="26.71" y="153.84" class="st4">Done</text></g><g id="shape6-12" transform="translate(138.265,-109.726)"><title>Sheet.6</title><desc>Ready_in</desc><rect width="56.693" height="20" x="0" y="140.24" class="st3"/><text x="7.69" y="153.84" class="st4">Ready_in</text></g><g id="shape7-15" transform="translate(61.7292,-109.726)"><title>Sheet.7</title><desc>Ready_out</desc><rect width="68.306" height="20" x="0" y="140.24" class="st3"/><text x="4" y="153.84" class="st4">Ready_out</text></g><g id="shape8-18" transform="translate(14.9576,-17.7579)"><title>Sheet.8</title><desc>Data Interfaces</desc><rect width="226.772" height="45.354" x="0" y="114.886" class="st5"/><text x="76.25" y="141.16" class="st6">Data Interfaces</text></g><g id="shape1001-21" transform="translate(61.7292,-111.144)"><title>Dynamic connector.1001</title><path d="M0 153.15 L-46.82 153.15" class="st7"/></g><g id="shape1002-27" transform="translate(7.87096,-145.159)"><title>Dynamic connector.1002</title><path d="M0 167.33 L46.82 167.33" class="st7"/></g><g id="shape1003-32" transform="translate(194.958,-133.821)"><title>Dynamic connector.1003</title><path d="M0 153.15 L38.31 153.15" class="st7"/></g><g id="shape1004-37" transform="translate(240.312,-125.317)"><title>Dynamic connector.1004</title><path d="M0 167.33 L-38.31 167.33" class="st7"/></g><g id="shape1005-42" transform="translate(-82.7588,-22.3994) rotate(-45)"><title>Straight Line.1009</title><path d="M0 160.24 L17.82 160.24" class="st9"/></g><g id="shape1006-45" transform="translate(-82.7588,-39.7222) rotate(-45)"><title>Straight Line.1010</title><path d="M0 160.24 L17.82 160.24" class="st9"/></g><g id="shape1007-48" transform="translate(63.2253,-85.2382)"><title>Sheet.1007</title><desc>Arg_0</desc><rect width="50.709" height="17.008" x="0" y="143.232" class="st3"/><text x="10.94" y="155.34" class="st4">Arg_0</text></g><g id="shape1008-51" transform="translate(61.7292,-68.7815)"><title>Sheet.1008</title><desc>Arg_1</desc><rect width="53.701" height="17.008" x="0" y="143.232" class="st3"/><text x="12.43" y="155.34" class="st4">Arg_1</text></g><g id="shape1009-54" transform="translate(16.3749,-100.829)"><title>Dynamic connector.1063</title><path d="M0 167.33 L38.31 167.33" class="st7"/></g><g id="shape1010-59" transform="translate(16.3749,-68.2303)"><title>Dynamic connector.1064</title><path d="M0 153.15 L38.31 153.15" class="st7"/></g></g></svg>