<svg xmlns="http://www.w3.org/2000/svg" xmlns:ev="http://www.w3.org/2001/xml-events" xmlns:xlink="http://www.w3.org/1999/xlink" width="434.867" height="396.014" class="st21" color-interpolation-filters="sRGB" viewBox="0 0 326.15 297.011" xml:space="preserve"><style type="text/css">.st1,.st2{stroke:#c8c8c8;stroke-linecap:butt;stroke-width:1.5}.st2{fill:#fff;stroke:none;stroke-width:7.2}.st3{fill:#4672c4;font-family:Calibri;font-size:.833336em}.st4,.st5{stroke:#4672c4}.st4{marker-end:url(#mrkr4-12);stroke-linecap:round;stroke-linejoin:round;stroke-width:1}.st5{fill:#4672c4;fill-opacity:1;stroke-opacity:1;stroke-width:.28409090909091}.st6{fill:url(#grad0-22);stroke:#3c63ac;stroke-width:.75}.st7{fill:#3c63ac;font-family:Calibri;font-size:.833336em}.st8{font-size:1em}.st9{fill:#4672c4;stroke:#c7c8c8;stroke-width:.25}.st10,.st11{fill:#feffff;font-family:Calibri;font-size:1.00001em}.st11{fill:#3c63ac;font-size:.833336em;font-style:italic}.st12{fill:#fff;stroke:#e8ebf4;stroke-width:.75}.st13{fill:#4672c4;font-family:Calibri;font-size:1.00001em}.st14{stroke:none;stroke-linecap:round;stroke-linejoin:round;stroke-width:.75}.st15{fill:#000;font-family:Calibri;font-size:.926422em}.st16,.st17{stroke:#d4d4d4;stroke-linecap:round;stroke-linejoin:round;stroke-width:.75}.st17{fill:#d4d4d4;stroke:none}.st18{fill:url(#grad0-22)}.st19{stroke:#3c63ac;stroke-width:.75}.st20{fill:none;stroke:none;stroke-width:.25}.st21{fill:none;fill-rule:evenodd;font-size:12px;overflow:visible;stroke-linecap:square;stroke-miterlimit:3}</style><defs id="Patterns_And_Gradients"><linearGradient id="grad0-22" x1="0" x2="1" y1="0" y2="0" gradientTransform="rotate(60 0.5 0.5)"><stop offset="0" stop-color="#e8ebf4" stop-opacity="1"/><stop offset=".24" stop-color="#f4f5f9" stop-opacity="1"/><stop offset=".54" stop-color="#feffff" stop-opacity="1"/></linearGradient></defs><defs id="Markers"><g id="lend4"><path d="M 2 1 L 0 0 L 2 -1 L 2 1" style="stroke:none"/></g><marker id="mrkr4-12" class="st5" markerUnits="strokeWidth" orient="auto" overflow="visible" refX="-7.04"><use transform="scale(-3.52,-3.52)" xlink:href="#lend4"/></marker></defs><g><title>Page-1</title><g id="shape1000-1" transform="translate(1.5,-205.551)"><title>2-line bus.1029</title><desc>Avalon Interconnect</desc><path d="M0 297.01 L323.15 297.01" class="st1"/><path d="M0 282.84 L323.15 282.84" class="st1"/><rect width="82.325" height="12" x="113.813" y="285.339" class="st2"/><text x="113.81" y="294.34" class="st3">Avalon Interconnect</text></g><g id="shape1036-7" transform="translate(223.037,-205.76)"><title>Dynamic connector.1052</title><path d="M-7.09 297.01 L-7.09 327.24" class="st4"/></g><g id="shape1072-13" transform="translate(99.5391,-239.109)"><title>Dynamic connector.1030</title><path d="M-6.84 297.01 L-7.15 309.36" class="st4"/></g><g id="group1073-18" transform="translate(11.2003,-239.109)"><title>Sheet.1073</title><g id="shape1070-19" transform="translate(0,-14.1732)"><title>Rectangle.1026</title><desc>Some component with a host role (e.g. CPU, JTAG-Avalon MM Mas...</desc><rect width="162.992" height="42.979" x="0" y="254.032" class="st6"/><text x="4" y="267.03" class="st7">Some component with a host role <tspan x="4" class="st8" dy="1.2em">(e.g. CPU, JTAG</tspan>-Avalon MM Master)</text></g><g id="shape1071-25" transform="translate(50.315,0)"><title>Sheet.1071</title><desc>MM Host</desc><rect width="62.362" height="14.173" x="0" y="282.838" class="st9"/><text x="8.31" y="293.52" class="st10">MM Host</text></g></g><g id="group1081-28" transform="translate(38.8152,-0.75)"><title>Sheet.1081</title><g id="shape1038-29"><title>Rectangle</title><desc>Kernel</desc><rect width="248.519" height="157.24" x="0" y="139.771" class="st6"/><text x="111.45" y="290.01" class="st11">Kernel</text></g><g id="group1039-33" transform="translate(138.41,-42.5186)"><title>Sheet.1039</title><g id="shape1040-34" transform="translate(0.940386,-8.49508E-09)"><title>Sheet.1040</title><desc>CSR</desc><rect width="86.368" height="114.904" x="0" y="182.106" class="st12"/><text x="35.33" y="196.91" class="st13">CSR</text></g><g id="shape1041-37" transform="translate(10.3262,-111.26)"><title>Sheet.1041</title><desc>MM Agent</desc><rect width="62.362" height="14.173" x="0" y="282.838" class="st9"/><text x="5.12" y="293.52" class="st10">MM Agent</text></g><g id="shape1042-40" transform="translate(3.48851,-73.6226)"><title>Sheet.1042</title><desc>Start</desc><path d="M30.07 283.67 L0 283.67 L0 297.01 L30.07 297.01 L30.07 283.67" class="st14"/><text x="4.16" y="293.67" class="st15">Start</text></g><g id="shape1043-44" transform="translate(3.48851,-58.8)"><title>Sheet.1043</title><desc>Done</desc><path d="M32.94 283.67 L0 283.67 L0 297.01 L32.94 297.01 L32.94 283.67" class="st14"/><text x="4.43" y="293.67" class="st15">Done</text></g><g id="shape1044-48" transform="translate(3.23837,-43.9774)"><title>Sheet.1044</title><desc>FinishCounter</desc><path d="M75.16 283.67 L0 283.67 L0 297.01 L75.16 297.01 L75.16 283.67" class="st14"/><text x="6.16" y="293.67" class="st15">FinishCounter</text></g><g id="shape1045-52" transform="translate(1.0775,-89.1901)"><title>Sheet.1045</title><path d="M0 297.01 L85.99 297.01" class="st16"/></g><g id="shape1046-55" transform="translate(1.0775,-88.449)"><title>Sheet.1046</title><path d="M85.99 296.27 L0 296.27 L0 297.01 L85.99 297.01 L85.99 296.27 Z" class="st17"/></g><g id="shape1047-57" transform="translate(1.0775,-74.3675)"><title>Sheet.1047</title><path d="M0 297.01 L85.99 297.01" class="st16"/></g><g id="shape1048-60" transform="translate(1.0775,-73.6264)"><title>Sheet.1048</title><path d="M85.99 296.27 L0 296.27 L0 297.01 L85.99 297.01 L85.99 296.27 Z" class="st17"/></g><g id="shape1049-62" transform="translate(1.0775,-59.5449)"><title>Sheet.1049</title><path d="M0 297.01 L85.99 297.01" class="st16"/></g><g id="shape1050-65" transform="translate(1.0775,-58.8037)"><title>Sheet.1050</title><path d="M85.99 296.27 L0 296.27 L0 297.01 L85.99 297.01 L85.99 296.27 Z" class="st17"/></g><g id="shape1051-67" transform="translate(-1.59872E-14,-44.7222)"><title>Sheet.1051</title><path d="M0 297.01 L79.83 297.01" class="st16"/></g><g id="shape1052-70" transform="translate(1.00024,-43.9811)"><title>Sheet.1052</title><path d="M0 251.8 L0 297.01" class="st16"/></g><g id="shape1053-73" transform="translate(1.0775,-43.9811)"><title>Sheet.1053</title><path d="M0.8 251.8 L0 251.8 L0 297.01 L0.8 297.01 L0.8 251.8 Z" class="st17"/></g><g id="shape1054-75" transform="translate(87.0703,-43.9811)"><title>Sheet.1054</title><path d="M0.8 251.8 L0 251.8 L0 297.01 L0.8 297.01 L0.8 251.8 Z" class="st17"/></g><g id="shape1055-77" transform="translate(4.09252,-31.7271)"><title>Sheet.1055</title><desc>some_arg</desc><path d="M83.81 283.67 L0 283.67 L0 297.01 L83.81 297.01 L83.81 283.67" class="st14"/><text x="0" y="293.67" class="st15">some_arg</text></g><g id="shape1056-81" transform="translate(4.15728,-16.9045)"><title>Sheet.1056</title><desc>some_other_arg</desc><path d="M83.81 283.67 L0 283.67 L0 297.01 L83.81 297.01 L83.81 283.67" class="st14"/><text x="0" y="293.67" class="st15">some_other_arg</text></g><g id="shape1057-85" transform="translate(4.09252,-2.08189)"><title>Sheet.1057</title><desc>some_output</desc><path d="M83.81 283.67 L0 283.67 L0 297.01 L83.81 297.01 L83.81 283.67" class="st14"/><text x="0" y="293.67" class="st15">some_output</text></g><g id="shape1058-89" transform="translate(0.740519,-45.209)"><title>Sheet.1058</title><path d="M0 297.01 L86.37 297.01" class="st16"/></g><g id="shape1059-92" transform="translate(0.740519,-44.4679)"><title>Sheet.1059</title><path d="M86.37 296.27 L0 296.27 L0 297.01 L86.37 297.01 L86.37 296.27 Z" class="st17"/></g><g id="shape1060-94" transform="translate(0.740519,-30.3864)"><title>Sheet.1060</title><path d="M0 297.01 L86.37 297.01" class="st16"/></g><g id="shape1061-97" transform="translate(0.740519,-29.6452)"><title>Sheet.1061</title><path d="M86.37 296.27 L0 296.27 L0 297.01 L86.37 297.01 L86.37 296.27 Z" class="st17"/></g><g id="shape1062-99" transform="translate(0.740519,-15.5638)"><title>Sheet.1062</title><path d="M0 297.01 L86.37 297.01" class="st16"/></g><g id="shape1063-102" transform="translate(0.740519,-14.8226)"><title>Sheet.1063</title><path d="M86.37 296.27 L0 296.27 L0 297.01 L86.37 297.01 L86.37 296.27 Z" class="st17"/></g><g id="shape1064-104" transform="translate(0.740519,-0.741131)"><title>Sheet.1064</title><path d="M0 297.01 L86.37 297.01" class="st16"/></g><g id="shape1065-107" transform="translate(0.740519,0)"><title>Sheet.1065</title><path d="M86.37 296.27 L0 296.27 L0 297.01 L86.37 297.01 L86.37 296.27 Z" class="st17"/></g><g id="shape1066-109" transform="translate(0.740519,-8.49508E-09)"><title>Sheet.1066</title><path d="M0 251.8 L0 297.01" class="st16"/></g><g id="shape1067-112" transform="translate(0.740519,0)"><title>Sheet.1067</title><path d="M0.81 251.8 L0 251.8 L0 297.01 L0.81 297.01 L0.81 251.8 Z" class="st17"/></g><g id="shape1068-114" transform="translate(87.109,-8.49508E-09)"><title>Sheet.1068</title><path d="M0 251.8 L0 297.01" class="st16"/></g><g id="shape1069-117" transform="translate(87.109,0)"><title>Sheet.1069</title><path d="M0.81 251.8 L0 251.8 L0 297.01 L0.81 297.01 L0.81 251.8 Z" class="st17"/></g></g><g id="shape1074-119" transform="translate(29.5199,-32.4213)"><title>Cloud.1074</title><path d="M3.37 271.34 A5.41106 8.33275 0 0 1 5.97 255.34 A10.973 16.8979 0 0 1 21.89 241.83 A12.6001 19.4034 0 0 1 35.53 238.82 A7.90136 12.1677 0 0 1 47.23 237.82 A8.99585 13.8531 0 0 1 61.53 242.82 A6.43229 9.90504 0 0 1 66.72 256.83 A7.96721 12.2687 0 0 1 60.23 276.85 A10.0513 15.4779 0 0 1 45.94 286.85 A11.8513 18.2498 0 0 1 26.44 290.86 A15.0231 23.134 0 0 1 9.54 286.85 A5.92691 9.12713 0 0 1 3.37 271.34 Z" class="st18"/><path d="M3.37 271.34 A5.41106 8.33275 0 0 1 5.97 255.34 A10.973 16.8979 0 0 1 21.89 241.83 A12.6001 19.4034 0 0 1 35.53 238.82 A7.90136 12.1677 0 0 1 47.23 237.82 A8.99585 13.8531 0 0 1 61.53 242.82 A6.43229 9.90504 0 0 1 66.72 256.83 A7.96721 12.2687 0 0 1 60.23 276.85 A10.0513 15.4779 0 0 1 45.94 286.85 A11.8513 18.2498 0 0 1 26.44 290.86 A15.0231 23.134 0 0 1 9.54 286.85 A5.92691 9.12713 0 0 1 3.37 271.34" class="st19"/><path d="M6.94 271.84 A5.39611 8.30972 0 0 1 3.37 271.34" class="st19"/><path d="M25.46 288.36 A5.4196 8.34589 -180 0 0 26.44 290.86" class="st19"/><path d="M46.42 283.85 A4.37493 6.73717 0 0 1 45.94 286.85" class="st19"/><path d="M56.33 268.84 A4.59072 7.06947 0 0 1 60.23 276.85" class="st19"/><path d="M64.78 259.84 A4.19112 6.45411 -180 0 0 66.72 256.83" class="st19"/><path d="M23.84 243.83 A6.4631 9.95249 -180 0 0 21.89 241.83" class="st19"/></g><g id="shape1076-129" transform="translate(50.9017,-21.2598)"><title>Circle.1076</title><desc>WR</desc><path d="M0 284.13 A12.8778 12.8778 0 0 1 25.76 284.13 A12.8778 12.8778 0 1 1 0 284.13 Z" class="st6"/><text x="5.71" y="287.13" class="st7">WR</text></g><g id="shape1077-133" transform="translate(76.6574,-34.1377)"><title>Dynamic connector.1077</title><path d="M0 297.01 L36.73 297.01 L36.73 281.54 L55.65 281.54" class="st4"/></g><g id="shape1078-138" transform="translate(139.35,-77.2028)"><title>Dynamic connector.1078</title><path d="M0 293.43 L-11.79 293.43 L-11.79 256.31 L-97.69 256.31 L-97.69 279.38" class="st4"/></g><g id="shape1079-143" transform="translate(139.35,-65.1968)"><title>Dynamic connector.1079</title><path d="M0 297.01 L-25.96 297.01 L-25.96 253.39 L-54.08 253.39 L-54.08 260.59" class="st4"/></g><g id="shape1080-148" transform="translate(36.6065,-63.7795)"><title>Sheet.1080</title><desc>Kernel Logic</desc><rect width="54.346" height="25.512" x="0" y="271.499" class="st20"/><text x="14.08" y="284.5" class="st3">Kernel <tspan x="16.82" class="st8" dy="1.2em">Logic</tspan></text></g></g></g></svg>