<svg xmlns="http://www.w3.org/2000/svg" xmlns:ev="http://www.w3.org/2001/xml-events" xmlns:xlink="http://www.w3.org/1999/xlink" width="428.045" height="198.536" class="st11" color-interpolation-filters="sRGB" viewBox="0 0 321.033 148.902" xml:space="preserve"><style type="text/css">.st1{fill:url(#grad0-4);stroke:#3c63ac;stroke-width:.75}.st2{fill:#3c63ac;font-family:Calibri;font-size:.833336em;font-style:italic}.st3{fill:#4672c4;stroke:#c7c8c8;stroke-width:.25}.st4{fill:#feffff;font-family:Calibri;font-size:1.00001em}.st5{font-size:1em}.st6,.st7{stroke:#4672c4}.st6{marker-end:url(#mrkr4-22);stroke-linecap:round;stroke-linejoin:round;stroke-width:1}.st7{fill:#4672c4;fill-opacity:1;stroke-opacity:1;stroke-width:.28409090909091}.st8{fill:#fff;stroke:none;stroke-linecap:butt}.st9{fill:#3c63ac;font-family:Calibri;font-size:.666664em}.st10{fill:#fff;stroke:none;stroke-linecap:butt;stroke-width:7.2}.st11{fill:none;fill-rule:evenodd;font-size:12px;overflow:visible;stroke-linecap:square;stroke-miterlimit:3}</style><defs id="Patterns_And_Gradients"><linearGradient id="grad0-4" x1="0" x2="1" y1="0" y2="0" gradientTransform="rotate(60 0.5 0.5)"><stop offset="0" stop-color="#e8ebf4" stop-opacity="1"/><stop offset=".24" stop-color="#f4f5f9" stop-opacity="1"/><stop offset=".54" stop-color="#feffff" stop-opacity="1"/></linearGradient></defs><defs id="Markers"><g id="lend4"><path d="M 2 1 L 0 0 L 2 -1 L 2 1" style="stroke:none"/></g><marker id="mrkr4-22" class="st7" markerUnits="strokeWidth" orient="auto" overflow="visible" refX="-7.04"><use transform="scale(-3.52,-3.52)" xlink:href="#lend4"/></marker></defs><g><title>Page-1</title><g id="shape1010-1" transform="translate(97.466,-0.75)"><title>Rectangle</title><desc>Kernel</desc><rect width="134.038" height="147.402" x="0" y="1.5" class="st1"/><text x="54.21" y="141.9" class="st2">Kernel</text></g><g id="shape1011-6" transform="translate(51.0993,-102.797)"><title>Sheet.1011</title><desc>Invocation Interface</desc><rect width="226.772" height="45.354" x="0" y="103.547" class="st3"/><text x="64.4" y="129.82" class="st4">Invocation Interface</text></g><g id="shape1012-9" transform="translate(-36.1487,121.222) rotate(-90)"><title>Sheet.1012</title><desc>Streaming Sink</desc><rect width="62.362" height="30.067" x="0" y="118.834" class="st3"/><text x="6.32" y="130.27" class="st4">Streaming <tspan x="21.17" class="st5" dy="1.2em">Sink</tspan></text></g><g id="shape1013-13" transform="translate(367.65,58.8602) rotate(90)"><title>Sheet.1013</title><desc>Streaming Source</desc><rect width="62.362" height="30.067" x="0" y="118.834" class="st3"/><text x="6.32" y="130.27" class="st4">Streaming <tspan x="14.49" class="st5" dy="1.2em">Source</tspan></text></g><g id="shape1014-17" transform="translate(82.6853,-71.6161)"><title>Dynamic connector.1014</title><desc>Ready</desc><path d="M0 141.81 L-67.77 141.81" class="st6"/><rect width="19.98" height="9.6" x="-47.397" y="137.015" class="st8"/><text x="-47.4" y="144.22" class="st9">Ready</text></g><g id="shape1015-25" transform="translate(7.87096,-57.4429)"><title>Dynamic connector.1015</title><desc>Valid</desc><path d="M0 141.81 L67.77 141.81" class="st6"/><rect width="16.246" height="9.6" x="29.284" y="137.015" class="st8"/><text x="29.28" y="144.22" class="st9">Valid</text></g><g id="shape1016-32" transform="translate(7.87096,-43.2697)"><title>Dynamic connector.1016</title><desc>Data</desc><path d="M0 141.81 L67.77 141.81" class="st6"/><rect width="15.265" height="9.6" x="29.774" y="137.015" class="st10"/><text x="29.77" y="144.22" class="st9">Data</text></g><g id="shape1017-39" transform="translate(7.87096,-31.0807)"><title>Dynamic connector.1017</title><desc>&lt;other signals&gt;</desc><path d="M0 141.81 L67.77 141.81" class="st6"/><rect width="49.379" height="9.6" x="12.718" y="137.015" class="st10"/><text x="12.72" y="144.22" class="st9">&lt;other signals&gt;</text></g><g id="shape1018-46" transform="translate(311.178,-72.4665)"><title>Dynamic connector.1018</title><desc>Ready</desc><path d="M0 141.81 L-55.32 141.81" class="st6"/><rect width="19.98" height="9.6" x="-41.171" y="137.015" class="st10"/><text x="-41.17" y="144.22" class="st9">Ready</text></g><g id="shape1019-53" transform="translate(248.816,-74.4508)"><title>Dynamic connector.1019</title><desc>Valid</desc><path d="M0 155.99 L56.74 155.99" class="st6"/><rect width="16.246" height="9.6" x="23.767" y="151.188" class="st10"/><text x="23.77" y="158.39" class="st9">Valid</text></g><g id="shape1020-60" transform="translate(248.816,-60.2776)"><title>Dynamic connector.1020</title><desc>Data</desc><path d="M0 155.99 L57.31 155.99" class="st6"/><rect width="15.265" height="9.6" x="24.541" y="151.188" class="st10"/><text x="24.54" y="158.39" class="st9">Data</text></g><g id="shape1021-67" transform="translate(248.816,-32.0728)"><title>Dynamic connector.1021</title><desc>&lt;other signals&gt;</desc><path d="M0 141.96 L56.74 141.7" class="st6"/><rect width="49.379" height="9.6" x="7.201" y="137.015" class="st10"/><text x="7.2" y="144.22" class="st9">&lt;other signals&gt;</text></g></g></svg>