<svg xmlns="http://www.w3.org/2000/svg" xmlns:ev="http://www.w3.org/2001/xml-events" xmlns:xlink="http://www.w3.org/1999/xlink" width="330.91" height="198.536" class="st9" color-interpolation-filters="sRGB" viewBox="0 0 248.183 148.902" xml:space="preserve"><style type="text/css">.st1{fill:url(#grad0-4);stroke:#3c63ac;stroke-width:.75}.st2{fill:#3c63ac;font-family:Calibri;font-size:.833336em;font-style:italic}.st3{fill:none;stroke:none;stroke-width:.25}.st4,.st5{fill:#4672c4}.st4{font-family:Calibri;font-size:1.00001em}.st5{stroke:#c7c8c8;stroke-width:.25}.st6{fill:#feffff;font-family:Calibri;font-size:1.00001em}.st7,.st8{stroke:#4672c4}.st7{marker-end:url(#mrkr4-26);stroke-linecap:round;stroke-linejoin:round;stroke-width:1}.st8{fill:#4672c4;fill-opacity:1;stroke-opacity:1;stroke-width:.28409090909091}.st9{fill:none;fill-rule:evenodd;font-size:12px;overflow:visible;stroke-linecap:square;stroke-miterlimit:3}</style><defs id="Patterns_And_Gradients"><linearGradient id="grad0-4" x1="0" x2="1" y1="0" y2="0" gradientTransform="rotate(60 0.5 0.5)"><stop offset="0" stop-color="#e8ebf4" stop-opacity="1"/><stop offset=".24" stop-color="#f4f5f9" stop-opacity="1"/><stop offset=".54" stop-color="#feffff" stop-opacity="1"/></linearGradient></defs><defs id="Markers"><g id="lend4"><path d="M 2 1 L 0 0 L 2 -1 L 2 1" style="stroke:none"/></g><marker id="mrkr4-26" class="st8" markerUnits="strokeWidth" orient="auto" overflow="visible" refX="-7.04"><use transform="scale(-3.52,-3.52)" xlink:href="#lend4"/></marker></defs><g><title>Page-1</title><g id="shape1-1" transform="translate(61.7292,-0.75)"><title>Rectangle</title><desc>Kernel</desc><rect width="133.228" height="147.402" x="0" y="1.5" class="st1"/><text x="53.81" y="141.9" class="st2">Kernel</text></g><g id="shape4-6" transform="translate(61.7292,-119.805)"><title>Sheet.4</title><desc>Start</desc><rect width="36.85" height="20" x="0" y="128.902" class="st3"/><text x="4" y="142.5" class="st4">Start</text></g><g id="shape5-9" transform="translate(138.265,-119.805)"><title>Sheet.5</title><desc>Done</desc><rect width="56.693" height="20" x="0" y="128.902" class="st3"/><text x="26.71" y="142.5" class="st4">Done</text></g><g id="shape6-12" transform="translate(138.265,-99.9626)"><title>Sheet.6</title><desc>Ready_in</desc><rect width="56.693" height="20" x="0" y="128.902" class="st3"/><text x="7.69" y="142.5" class="st4">Ready_in</text></g><g id="shape7-15" transform="translate(61.7292,-99.9626)"><title>Sheet.7</title><desc>Ready_out</desc><rect width="68.306" height="20" x="0" y="128.902" class="st3"/><text x="4" y="142.5" class="st4">Ready_out</text></g><g id="shape8-18" transform="translate(19.2095,-29.0965)"><title>Sheet.8</title><desc>Data Interfaces</desc><rect width="226.772" height="45.354" x="0" y="103.547" class="st5"/><text x="76.25" y="129.82" class="st6">Data Interfaces</text></g><g id="shape1001-21" transform="translate(61.7292,-101.38)"><title>Dynamic connector.1001</title><path d="M0 141.81 L-46.82 141.81" class="st7"/></g><g id="shape1002-27" transform="translate(7.87096,-124.057)"><title>Dynamic connector.1002</title><path d="M0 141.81 L46.82 141.81" class="st7"/></g><g id="shape1003-32" transform="translate(194.958,-124.057)"><title>Dynamic connector.1003</title><path d="M0 141.81 L38.31 141.81" class="st7"/></g><g id="shape1004-37" transform="translate(240.312,-101.38)"><title>Dynamic connector.1004</title><path d="M0 141.81 L-38.31 141.81" class="st7"/></g></g></svg>