<svg xmlns="http://www.w3.org/2000/svg" xmlns:ev="http://www.w3.org/2001/xml-events" xmlns:xlink="http://www.w3.org/1999/xlink" width="483.08" height="389.753" class="st17" color-interpolation-filters="sRGB" viewBox="0 0 362.31 292.315" xml:space="preserve"><style type="text/css">.st1{fill:url(#grad0-4);stroke:#3c63ac;stroke-width:.75}.st2{fill:#3c63ac;font-family:Calibri;font-size:.833336em;font-style:italic}.st3{fill:#4672c4;stroke:#c7c8c8;stroke-width:.25}.st4,.st5{fill:#feffff;font-family:Calibri;font-size:1.00001em}.st5{fill:#3c63ac;font-size:.833336em}.st6{font-size:1em}.st7{marker-end:url(#mrkr4-28);stroke-linecap:round;stroke-linejoin:round;stroke-width:1}.st7,.st8,.st9{stroke:#4672c4}.st8{fill:#4672c4;fill-opacity:1;stroke-opacity:1;stroke-width:.28409090909091}.st9{stroke-linecap:round;stroke-linejoin:round;stroke-width:1}.st10{fill:none;stroke:none;stroke-width:.25}.st11{fill:#4672c4;font-family:Calibri;font-size:1.00001em}.st12{fill:#fff;stroke:#000;stroke-width:.75}.st13{fill:#4672c4;font-family:Calibri;font-size:.833336em}.st14{fill:none}.st15{stroke:#c7c8c8;stroke-width:.25}.st16{fill:#000;font-family:Calibri;font-size:.916672em}.st17{fill:none;fill-rule:evenodd;font-size:12px;overflow:visible;stroke-linecap:square;stroke-miterlimit:3}</style><defs id="Patterns_And_Gradients"><linearGradient id="grad0-4" x1="0" x2="1" y1="0" y2="0" gradientTransform="rotate(60 0.5 0.5)"><stop offset="0" stop-color="#e8ebf4" stop-opacity="1"/><stop offset=".24" stop-color="#f4f5f9" stop-opacity="1"/><stop offset=".54" stop-color="#feffff" stop-opacity="1"/></linearGradient></defs><defs id="Markers"><g id="lend4"><path d="M 2 1 L 0 0 L 2 -1 L 2 1" style="stroke:none"/></g><marker id="mrkr4-28" class="st8" markerUnits="strokeWidth" orient="auto" overflow="visible" refX="-7.04"><use transform="scale(-3.52,-3.52)" xlink:href="#lend4"/></marker></defs><g><title>Page-1</title><g id="shape1000-1" transform="translate(100.064,-0.75)"><title>Rectangle</title><desc>Kernel</desc><rect width="134.038" height="112.063" x="0" y="180.252" class="st1"/><text x="54.21" y="285.31" class="st2">Kernel</text></g><g id="group1025-6" transform="translate(0.75,-232.037)"><title>Sheet.1025</title><g id="shape1026-7" transform="translate(35.838,0)"><title>Sheet.1026</title><desc>MM Agent</desc><rect width="62.362" height="14.173" x="0" y="278.142" class="st3"/><text x="5.12" y="288.83" class="st4">MM Agent</text></g><g id="shape1027-10" transform="translate(0,-14.1732)"><title>Rectangle.1027</title><desc>Some component with an agent role (e.g. EMIF, Peripheral I/O,...</desc><rect width="134.038" height="45.354" x="0" y="246.961" class="st1"/><text x="4" y="259.96" class="st5">Some component with <tspan class="st6">an </tspan><tspan x="4" class="st6" dy="1.2em">agent role </tspan>(e.g<tspan class="st6">. EMIF, </tspan><tspan x="4" class="st6" dy="1.2em">Peripheral I/O, on</tspan><tspan class="st6">-</tspan><tspan class="st6">chip RAM</tspan>)</text></g></g><g id="shape1028-20" transform="translate(-192.96,258.703) rotate(-90)"><title>Sheet.1028</title><desc>MM Host</desc><rect width="62.362" height="14.173" x="0" y="278.142" class="st3"/><text x="8.31" y="288.83" class="st4">MM Host</text></g><g id="shape1029-23" transform="translate(85.1819,-64.7932)"><title>Dynamic connector.1035</title><path d="M0 292.31 L-42.22 292.31 L-42.22 191.64" class="st7"/></g><g id="group1031-29" transform="translate(198.568,-232.037)"><title>Sheet.1031</title><g id="shape1020-30" transform="translate(0,-14.1732)"><title>Rectangle.1026</title><desc>Some component with a host role (e.g. CPU, JTAG-Avalon MM Mas...</desc><rect width="162.992" height="44.815" x="0" y="247.499" class="st1"/><text x="4" y="260.5" class="st5">Some component with a host role <tspan x="4" class="st6" dy="1.2em">(e.g. CPU, JTAG</tspan>-Avalon MM Master)</text></g><g id="shape1021-35" transform="translate(50.315,0)"><title>Sheet.1021</title><desc>MM Host</desc><rect width="62.362" height="14.173" x="0" y="278.142" class="st3"/><text x="8.31" y="288.83" class="st4">MM Host</text></g></g><g id="shape1040-38" transform="translate(159.996,-172.51)"><title>Dynamic connector.1040</title><path d="M7.09 292.31 L7.09 327.79" class="st7"/></g><g id="shape1041-43" transform="translate(60.0751,-189.518)"><title>Dynamic connector.1041</title><path d="M7.09 292.31 L7.09 256.84" class="st7"/></g><g id="shape1042-48" transform="translate(272.269,-232.037)"><title>Dynamic connector.1042</title><path d="M7.09 292.31 L7.09 327.79" class="st7"/></g><g id="group1043-53" transform="translate(0.75,-172.51)"><title>Avalon Interconnect.1043</title><g id="shape1044-54"><title>Sheet.1044</title><path d="M0 292.31 L334.49 292.31" class="st9"/></g><g id="shape1045-57" transform="translate(0,-17.0079)"><title>Sheet.1045</title><path d="M0 292.31 L334.49 292.31" class="st9"/></g><g id="shape1046-60" transform="translate(90.7087,-5.68434E-14)"><title>Sheet.1046</title><desc>Avalon Interconnect</desc><rect width="147.402" height="17.008" x="0" y="275.307" class="st10"/><text x="24.31" y="287.41" class="st11">Avalon Interconnect</text></g></g><g id="group1047-63" transform="translate(126.755,-21.2307)"><title>CSR.1047</title><g id="group1048-64"><title>Sheet.1048</title><g id="shape1049-65"><title>Corner table.1033</title><desc>CSR</desc><path d="M80.66 291.47 a0.847424 0.847424 0 0 1 -0.847424 0.847424 L0.85 292.31 a0.847424 0.847424 0 0 1 -0.847424 -0.847424 L0 191.49 a0.847424 0.847424 0 0 1 0.847424 -0.847424 L79.81 190.64 a0.847424 0.847424 0 0 1 0.847424 0.847424 L80.66 191.49 L80.66 291.47 Z" class="st12"/><text x="34.29" y="210.27" class="st13">CSR</text></g><g id="shape1050-68"><title>Data table.1032</title><desc>start done arg_x arg_y arg_z</desc><path d="M0 289.48 L80.66 289.48 L80.66 218.61 L0 218.61 L0 289.48 Z" class="st14"/><path d="M0 289.48 L80.66 289.48 L80.66 218.61 L0 218.61 L0 289.48" class="st15"/><path d="M0 232.79 L80.66 232.79" class="st15"/><path d="M0 246.96 L80.66 246.96" class="st15"/><path d="M0 261.13 L80.66 261.13" class="st15"/><path d="M0 275.31 L80.66 275.31" class="st15"/><text x="4" y="229.24" class="st16">start<tspan x="4" class="st6" dy="1.288em">done</tspan><tspan x="4" class="st6" dy="1.288em">arg_x</tspan><tspan x="4" class="st6" dy="1.288em">arg_y</tspan><tspan x="4" class="st6" dy="1.288em">arg_z</tspan></text></g></g><g id="shape1051-80" transform="translate(9.14735,-94.5861)"><title>Sheet.1051</title><desc>MM Agent</desc><rect width="62.362" height="14.173" x="0" y="278.142" class="st3"/><text x="5.12" y="288.83" class="st4">MM Agent</text></g></g></g></svg>