<svg xmlns="http://www.w3.org/2000/svg" xmlns:ev="http://www.w3.org/2001/xml-events" xmlns:xlink="http://www.w3.org/1999/xlink" width="543.948" height="205.829" class="st11" color-interpolation-filters="sRGB" viewBox="0 0 407.961 154.371" xml:space="preserve"><style type="text/css">.st1{fill:url(#grad0-4);stroke:#3c63ac;stroke-width:.75}.st2{fill:#3c63ac;font-family:Calibri;font-size:.833336em;font-style:italic}.st3{fill:none;stroke:none;stroke-width:.25}.st4{fill:#4672c4;font-family:Calibri;font-size:1.00001em}.st5{stroke:#4672c4;stroke-linecap:round;stroke-linejoin:round;stroke-width:1}.st6{fill:#4672c4;stroke:#c7c8c8;stroke-width:.25}.st7,.st8{fill:#feffff;font-family:Calibri;font-size:1.00001em}.st8{fill:#3c63ac;font-size:.833336em}.st10,.st9{stroke:#4672c4}.st9{marker-end:url(#mrkr4-46);stroke-linecap:round;stroke-linejoin:round;stroke-width:1}.st10{fill:#4672c4;fill-opacity:1;stroke-opacity:1;stroke-width:.28409090909091}.st11{fill:none;fill-rule:evenodd;font-size:12px;overflow:visible;stroke-linecap:square;stroke-miterlimit:3}</style><defs id="Patterns_And_Gradients"><linearGradient id="grad0-4" x1="0" x2="1" y1="0" y2="0" gradientTransform="rotate(60 0.5 0.5)"><stop offset="0" stop-color="#e8ebf4" stop-opacity="1"/><stop offset=".24" stop-color="#f4f5f9" stop-opacity="1"/><stop offset=".54" stop-color="#feffff" stop-opacity="1"/></linearGradient></defs><defs id="Markers"><g id="lend4"><path d="M 2 1 L 0 0 L 2 -1 L 2 1" style="stroke:none"/></g><marker id="mrkr4-46" class="st10" markerUnits="strokeWidth" orient="auto" overflow="visible" refX="-7.04"><use transform="scale(-3.52,-3.52)" xlink:href="#lend4"/></marker></defs><g><title>Page-1</title><g id="shape1-1" transform="translate(53.2253,-0.75)"><title>Rectangle.1</title><desc>Kernel</desc><rect width="133.228" height="114.803" x="0" y="39.568" class="st1"/><text x="53.81" y="147.37" class="st2">Kernel</text></g><g id="shape4-6" transform="translate(53.2253,-95.5532)"><title>Sheet.4</title><desc>Start</desc><rect width="36.85" height="20" x="0" y="134.371" class="st3"/><text x="4" y="147.97" class="st4">Start</text></g><g id="shape5-9" transform="translate(129.761,-95.5532)"><title>Sheet.5</title><desc>Done</desc><rect width="56.693" height="20" x="0" y="134.371" class="st3"/><text x="26.71" y="147.97" class="st4">Done</text></g><g id="shape6-12" transform="translate(129.761,-75.7894)"><title>Sheet.6</title><desc>Ready_in</desc><rect width="56.693" height="20" x="0" y="134.371" class="st3"/><text x="7.69" y="147.97" class="st4">Ready_in</text></g><g id="shape7-15" transform="translate(53.2253,-75.7894)"><title>Sheet.7</title><desc>Ready_out</desc><rect width="68.306" height="20" x="0" y="134.371" class="st3"/><text x="4" y="147.97" class="st4">Ready_out</text></g><g id="shape1009-18" transform="translate(-87.1128,40.5273) rotate(-45)"><title>Straight Line.1009</title><path d="M0 154.37 L17.82 154.37" class="st5"/></g><g id="shape1010-21" transform="translate(-87.1128,23.2045) rotate(-45)"><title>Straight Line.1010</title><path d="M0 154.37 L17.82 154.37" class="st5"/></g><g id="shape1013-24" transform="translate(54.7214,-20.5925)"><title>Sheet.1013</title><desc>Arg_0</desc><rect width="50.709" height="17.008" x="0" y="137.363" class="st3"/><text x="10.94" y="149.47" class="st4">Arg_0</text></g><g id="shape1014-27" transform="translate(53.2253,-6.41929)"><title>Sheet.1014</title><desc>Arg_1</desc><rect width="53.701" height="17.008" x="0" y="137.363" class="st3"/><text x="12.43" y="149.47" class="st4">Arg_1</text></g><g id="shape1033-30" transform="translate(44.8382,145.364) rotate(-90)"><title>Sheet.1033</title><desc>MM Host</desc><rect width="54.352" height="14.173" x="0" y="140.198" class="st6"/><text x="4.3" y="150.88" class="st7">MM Host</text></g><g id="group1036-33" transform="translate(273.923,-100.019)"><title>Sheet.1036</title><g id="shape1037-34" transform="translate(19.973,2.55795E-13)"><title>Sheet.1037</title><desc>MM Agent</desc><rect width="68.306" height="12.941" x="0" y="141.43" class="st6"/><text x="8.09" y="151.5" class="st7">MM Agent</text></g></g><g id="shape1043-37" transform="translate(273.923,-111.301)"><title>Rectangle.1027</title><desc>DDR</desc><rect width="109.539" height="28.953" x="0" y="125.418" class="st1"/><text x="45.9" y="138.42" class="st8">DDR</text></g><g id="shape1063-41" transform="translate(7.87096,-36.1831)"><title>Dynamic connector.1063</title><path d="M0 161.46 L38.31 161.46" class="st9"/></g><g id="shape1064-47" transform="translate(7.87096,-3.58464)"><title>Dynamic connector.1064</title><path d="M0 147.28 L38.31 147.28" class="st9"/></g><g id="shape1065-52" transform="translate(7.87096,-114.136)"><title>Dynamic connector.1065</title><path d="M0 161.46 L38.31 161.46" class="st9"/></g><g id="shape1066-57" transform="translate(186.454,-99.9626)"><title>Dynamic connector.1066</title><path d="M0 147.28 L34.06 147.28" class="st9"/></g><g id="shape1067-62" transform="translate(53.2253,-93.0177)"><title>Dynamic connector.1067</title><path d="M0 161.32 L-38.31 161.56" class="st9"/></g><g id="shape1068-67" transform="translate(227.556,-92.4508)"><title>Dynamic connector.1068</title><path d="M0 161.03 L-34.06 161.74" class="st9"/></g><g id="shape1069-72" transform="translate(199.21,-36.1831)"><title>Dynamic connector.1069</title><path d="M0 154.37 L128.17 154.37 L128.17 97.58" class="st9"/></g></g></svg>