<svg xmlns="http://www.w3.org/2000/svg" xmlns:ev="http://www.w3.org/2001/xml-events" xmlns:xlink="http://www.w3.org/1999/xlink" width="559.854" height="419.418" class="st17" color-interpolation-filters="sRGB" viewBox="0 0 419.89 314.564" xml:space="preserve"><style type="text/css">.st1{fill:url(#grad0-4);stroke:#3c63ac;stroke-width:.75}.st2{fill:#3c63ac;font-family:Calibri;font-size:.833336em;font-style:italic}.st3{fill:#4672c4;stroke:#c7c8c8;stroke-width:.25}.st4{fill:#feffff;font-family:Calibri;font-size:1.00001em}.st5,.st6{stroke:#4672c4}.st5{marker-end:url(#mrkr4-14);stroke-linecap:round;stroke-linejoin:round;stroke-width:1}.st6{fill:#4672c4;fill-opacity:1;stroke-opacity:1;stroke-width:.28409090909091}.st7{fill:#3c63ac;font-family:Calibri;font-size:.833336em}.st8{font-size:1em}.st9{fill:#fff;stroke:#000;stroke-width:.75}.st10{fill:#4672c4;font-family:Calibri;font-size:.833336em}.st11{fill:none}.st12{stroke:#c7c8c8;stroke-width:.25}.st13{fill:#000;font-family:Calibri;font-size:.916672em}.st14{stroke:#4672c4;stroke-linecap:round;stroke-linejoin:round;stroke-width:1}.st15{fill:none;stroke:none;stroke-width:.25}.st16{fill:#4672c4;font-family:Calibri;font-size:1.00001em}.st17{fill:none;fill-rule:evenodd;font-size:12px;overflow:visible;stroke-linecap:square;stroke-miterlimit:3}</style><defs id="Patterns_And_Gradients"><linearGradient id="grad0-4" x1="0" x2="1" y1="0" y2="0" gradientTransform="rotate(60 0.5 0.5)"><stop offset="0" stop-color="#e8ebf4" stop-opacity="1"/><stop offset=".24" stop-color="#f4f5f9" stop-opacity="1"/><stop offset=".54" stop-color="#feffff" stop-opacity="1"/></linearGradient></defs><defs id="Markers"><g id="lend4"><path d="M 2 1 L 0 0 L 2 -1 L 2 1" style="stroke:none"/></g><marker id="mrkr4-14" class="st6" markerUnits="strokeWidth" orient="auto" overflow="visible" refX="-7.04"><use transform="scale(-3.52,-3.52)" xlink:href="#lend4"/></marker></defs><g><title>Page-1</title><g id="shape1000-1" transform="translate(176.319,-0.75)"><title>Rectangle</title><desc>Kernel</desc><rect width="134.038" height="150.067" x="0" y="164.497" class="st1"/><text x="54.21" y="307.56" class="st2">Kernel</text></g><g id="shape1028-6" transform="translate(-138.953,233.922) rotate(-90)"><title>Sheet.1028</title><desc>MM Host</desc><rect width="62.362" height="14.173" x="0" y="300.391" class="st3"/><text x="8.31" y="311.08" class="st4">MM Host</text></g><g id="shape1029-9" transform="translate(161.438,-111.562)"><title>Dynamic connector.1035</title><path d="M0 314.3 L-56.29 314.3 L-56.29 307.69" class="st5"/></g><g id="group1031-15" transform="translate(244.351,-254.825)"><title>Sheet.1031</title><g id="shape1020-16" transform="translate(0,-14.1732)"><title>Rectangle.1026</title><desc>Some component with a host role (e.g. CPU, JTAG-Avalon MM Mas...</desc><rect width="162.992" height="44.815" x="0" y="269.749" class="st1"/><text x="4" y="282.75" class="st7">Some component with a host role <tspan x="4" class="st8" dy="1.2em">(e.g. CPU, JTAG</tspan>-Avalon MM Master)</text></g><g id="shape1021-21" transform="translate(50.315,5.68434E-14)"><title>Sheet.1021</title><desc>MM Host</desc><rect width="62.362" height="14.173" x="0" y="300.391" class="st3"/><text x="8.31" y="311.08" class="st4">MM Host</text></g></g><g id="group1035-24" transform="translate(203.01,-57.4429)"><title>Sheet.1035</title><g id="group1034-25"><title>Sheet.1034</title><g id="shape1033-26"><title>Corner table.1033</title><desc>CSR</desc><path d="M80.66 313.72 a0.847424 0.847424 0 0 1 -0.847424 0.847424 L0.85 314.56 a0.847424 0.847424 0 0 1 -0.847424 -0.847424 L0 213.74 a0.847424 0.847424 0 0 1 0.847424 -0.847424 L79.81 212.89 a0.847424 0.847424 0 0 1 0.847424 0.847424 L80.66 213.74 L80.66 313.72 Z" class="st9"/><text x="34.29" y="232.52" class="st10">CSR</text></g><g id="shape1032-29"><title>Data table.1032</title><desc>start done arg_x arg_y arg_z</desc><path d="M0 311.73 L80.66 311.73 L80.66 240.86 L0 240.86 L0 311.73 Z" class="st11"/><path d="M0 311.73 L80.66 311.73 L80.66 240.86 L0 240.86 L0 311.73" class="st12"/><path d="M0 255.04 L80.66 255.04" class="st12"/><path d="M0 269.21 L80.66 269.21" class="st12"/><path d="M0 283.38 L80.66 283.38" class="st12"/><path d="M0 297.56 L80.66 297.56" class="st12"/><text x="4" y="251.49" class="st13">start<tspan x="4" class="st8" dy="1.288em">done</tspan><tspan x="4" class="st8" dy="1.288em">arg_x</tspan><tspan x="4" class="st8" dy="1.288em">arg_y</tspan><tspan x="4" class="st8" dy="1.288em">arg_z</tspan></text></g></g><g id="shape1004-41" transform="translate(9.14735,-94.5861)"><title>Sheet.1004</title><desc>MM Agent</desc><rect width="62.362" height="14.173" x="0" y="300.391" class="st3"/><text x="5.12" y="311.08" class="st4">MM Agent</text></g></g><g id="shape1040-44" transform="translate(236.252,-202.01)"><title>Dynamic connector.1040</title><path d="M7.09 314.56 L7.09 343.33" class="st5"/></g><g id="shape1042-49" transform="translate(318.052,-254.825)"><title>Dynamic connector.1042</title><path d="M7.09 314.56 L7.09 343.33" class="st5"/></g><g id="shape1047-54" transform="translate(-138.953,299.641) rotate(-90)"><title>Sheet.1047</title><desc>MM Host</desc><rect width="62.362" height="14.173" x="0" y="300.391" class="st3"/><text x="8.31" y="311.08" class="st4">MM Host</text></g><g id="shape1055-57" transform="translate(161.438,-46.1043)"><title>Dynamic connector.1055</title><path d="M0 314.56 L-95.03 314.56 L-95.03 305.74" class="st5"/></g><g id="group1057-62" transform="translate(7.99361E-15,-61.9644)"><title>Sheet.1057</title><g id="shape1058-63" transform="translate(35.838,3.41061E-13)"><title>Sheet.1058</title><desc>MM Agent</desc><rect width="62.362" height="14.045" x="0" y="300.519" class="st3"/><text x="5.12" y="311.14" class="st4">MM Agent</text></g><g id="shape1059-66" transform="translate(18.3239,-13.6342)"><title>Rectangle.1027</title><desc>DDR1</desc><rect width="95.366" height="28.346" x="0" y="286.217" class="st1"/><text x="36.28" y="299.22" class="st7">DDR1</text></g></g><g id="group1060-70" transform="translate(38.7379,-125.474)"><title>Sheet.1060</title><g id="shape1061-71" transform="translate(35.838,3.41061E-13)"><title>Sheet.1061</title><desc>MM Agent</desc><rect width="62.362" height="14.045" x="0" y="300.519" class="st3"/><text x="5.12" y="311.14" class="st4">MM Agent</text></g><g id="shape1062-74" transform="translate(18.3239,-13.6342)"><title>Rectangle.1027</title><desc>DDR 0</desc><rect width="95.366" height="28.346" x="0" y="286.217" class="st1"/><text x="35.15" y="299.22" class="st7">DDR 0</text></g></g><g id="group1063-78" transform="translate(84.9021,-202.01)"><title>Avalon Interconnect.1063</title><g id="shape1064-79"><title>Sheet.1064</title><path d="M0 314.56 L334.49 314.56" class="st14"/></g><g id="shape1065-82" transform="translate(0,-17.0079)"><title>Sheet.1065</title><path d="M0 314.56 L334.49 314.56" class="st14"/></g><g id="shape1066-85" transform="translate(90.7087,0)"><title>Sheet.1066</title><desc>Avalon Interconnect</desc><rect width="147.402" height="17.008" x="0" y="297.556" class="st15"/><text x="24.31" y="309.66" class="st16">Avalon Interconnect</text></g></g></g></svg>