<svg xmlns="http://www.w3.org/2000/svg" xmlns:ev="http://www.w3.org/2001/xml-events" xmlns:xlink="http://www.w3.org/1999/xlink" width="606.471" height="495.009" class="st17" color-interpolation-filters="sRGB" viewBox="0 0 454.853 371.257" xml:space="preserve"><style type="text/css">.st1{fill:url(#grad0-4);stroke:#3c63ac;stroke-width:.75}.st2{fill:#3c63ac;font-family:Calibri;font-size:.833336em;font-style:italic}.st3{fill:#4672c4;stroke:#c7c8c8;stroke-width:.25}.st4{fill:#feffff;font-family:Calibri;font-size:1.00001em}.st5,.st6{stroke:#4672c4}.st5{marker-end:url(#mrkr4-14);stroke-linecap:round;stroke-linejoin:round;stroke-width:1}.st6{fill:#4672c4;fill-opacity:1;stroke-opacity:1;stroke-width:.28409090909091}.st7{fill:#3c63ac;font-family:Calibri;font-size:.833336em}.st8{font-size:1em}.st9{fill:#fff;stroke:#000;stroke-width:.75}.st10{fill:#4672c4;font-family:Calibri;font-size:.833336em}.st11{fill:none}.st12{stroke:#c7c8c8;stroke-width:.25}.st13{fill:#000;font-family:Calibri;font-size:.916672em}.st14{stroke:#4672c4;stroke-linecap:round;stroke-linejoin:round;stroke-width:1}.st15{fill:none;stroke:none;stroke-width:.25}.st16{fill:#4672c4;font-family:Calibri;font-size:1.00001em}.st17{fill:none;fill-rule:evenodd;font-size:12px;overflow:visible;stroke-linecap:square;stroke-miterlimit:3}</style><defs id="Patterns_And_Gradients"><linearGradient id="grad0-4" x1="0" x2="1" y1="0" y2="0" gradientTransform="rotate(60 0.5 0.5)"><stop offset="0" stop-color="#e8ebf4" stop-opacity="1"/><stop offset=".24" stop-color="#f4f5f9" stop-opacity="1"/><stop offset=".54" stop-color="#feffff" stop-opacity="1"/></linearGradient></defs><defs id="Markers"><g id="lend4"><path d="M 2 1 L 0 0 L 2 -1 L 2 1" style="stroke:none"/></g><marker id="mrkr4-14" class="st6" markerUnits="strokeWidth" orient="auto" overflow="visible" refX="-7.04"><use transform="scale(-3.52,-3.52)" xlink:href="#lend4"/></marker></defs><g><title>Page-1</title><g id="shape1000-1" transform="translate(211.282,-0.75)"><title>Rectangle</title><desc>Kernel</desc><rect width="134.038" height="206.76" x="0" y="164.497" class="st1"/><text x="54.21" y="364.26" class="st2">Kernel</text></g><g id="shape1028-6" transform="translate(-160.683,233.922) rotate(-90)"><title>Sheet.1028</title><desc>MM Host</desc><rect width="62.362" height="14.173" x="0" y="357.084" class="st3"/><text x="8.31" y="367.77" class="st4">MM Host</text></g><g id="shape1029-9" transform="translate(196.4,-168.255)"><title>Dynamic connector.1035</title><path d="M0 371 L-56.29 371 L-56.29 364.38" class="st5"/></g><g id="group1031-15" transform="translate(279.314,-311.518)"><title>Sheet.1031</title><g id="shape1020-16" transform="translate(0,-14.1732)"><title>Rectangle.1026</title><desc>Some component with a host role (e.g. CPU, JTAG-Avalon MM Mas...</desc><rect width="162.992" height="44.815" x="0" y="326.441" class="st1"/><text x="4" y="339.44" class="st7">Some component with a host role <tspan x="4" class="st8" dy="1.2em">(e.g. CPU, JTAG</tspan>-Avalon MM Master)</text></g><g id="shape1021-21" transform="translate(50.315,0)"><title>Sheet.1021</title><desc>MM Host</desc><rect width="62.362" height="14.173" x="0" y="357.084" class="st3"/><text x="8.31" y="367.77" class="st4">MM Host</text></g></g><g id="group1035-24" transform="translate(237.973,-114.136)"><title>Sheet.1035</title><g id="group1034-25"><title>Sheet.1034</title><g id="shape1033-26"><title>Corner table.1033</title><desc>CSR</desc><path d="M80.66 370.41 a0.847424 0.847424 0 0 1 -0.847424 0.847424 L0.85 371.26 a0.847424 0.847424 0 0 1 -0.847424 -0.847424 L0 270.43 a0.847424 0.847424 0 0 1 0.847424 -0.847424 L79.81 269.58 a0.847424 0.847424 0 0 1 0.847424 0.847424 L80.66 270.43 L80.66 370.41 Z" class="st9"/><text x="34.29" y="289.22" class="st10">CSR</text></g><g id="shape1032-29"><title>Data table.1032</title><desc>start done arg_x arg_y arg_z</desc><path d="M0 368.42 L80.66 368.42 L80.66 297.56 L0 297.56 L0 368.42 Z" class="st11"/><path d="M0 368.42 L80.66 368.42 L80.66 297.56 L0 297.56 L0 368.42" class="st12"/><path d="M0 311.73 L80.66 311.73" class="st12"/><path d="M0 325.9 L80.66 325.9" class="st12"/><path d="M0 340.08 L80.66 340.08" class="st12"/><path d="M0 354.25 L80.66 354.25" class="st12"/><text x="4" y="308.19" class="st13">start<tspan x="4" class="st8" dy="1.288em">done</tspan><tspan x="4" class="st8" dy="1.288em">arg_x</tspan><tspan x="4" class="st8" dy="1.288em">arg_y</tspan><tspan x="4" class="st8" dy="1.288em">arg_z</tspan></text></g></g><g id="shape1004-41" transform="translate(9.14735,-94.5861)"><title>Sheet.1004</title><desc>MM Agent</desc><rect width="62.362" height="14.173" x="0" y="357.084" class="st3"/><text x="5.12" y="367.77" class="st4">MM Agent</text></g></g><g id="shape1040-44" transform="translate(271.215,-258.703)"><title>Dynamic connector.1040</title><path d="M7.09 371.26 L7.09 400.02" class="st5"/></g><g id="shape1042-49" transform="translate(353.015,-311.518)"><title>Dynamic connector.1042</title><path d="M7.09 371.26 L7.09 400.02" class="st5"/></g><g id="shape1047-54" transform="translate(-160.683,299.641) rotate(-90)"><title>Sheet.1047</title><desc>MM Host</desc><rect width="62.362" height="14.173" x="0" y="357.084" class="st3"/><text x="8.31" y="367.77" class="st4">MM Host</text></g><g id="shape1048-57" transform="translate(-160.683,364.837) rotate(-90)"><title>Sheet.1048</title><desc>MM Host</desc><rect width="62.362" height="14.173" x="0" y="357.084" class="st3"/><text x="8.31" y="367.77" class="st4">MM Host</text></g><g id="group1052-60" transform="translate(7.99361E-15,-50.6258)"><title>Sheet.1052</title><g id="shape1053-61" transform="translate(35.838,3.41061E-13)"><title>Sheet.1053</title><desc>MM Agent</desc><rect width="62.362" height="14.045" x="0" y="357.212" class="st3"/><text x="5.12" y="367.83" class="st4">MM Agent</text></g><g id="shape1054-64" transform="translate(18.3239,-13.6342)"><title>Rectangle.1027</title><desc>Block RAM</desc><rect width="95.366" height="28.346" x="0" y="342.91" class="st1"/><text x="25.78" y="355.91" class="st7">Block RAM</text></g></g><g id="shape1055-68" transform="translate(196.4,-102.797)"><title>Dynamic connector.1055</title><path d="M0 371.26 L-95.03 371.26 L-95.03 362.44" class="st5"/></g><g id="shape1056-73" transform="translate(196.4,-37.0265)"><title>Dynamic connector.1056</title><path d="M0 370.68 L-129.99 370.68 L-129.99 364.7" class="st5"/></g><g id="group1057-78" transform="translate(34.9629,-118.657)"><title>Sheet.1057</title><g id="shape1058-79" transform="translate(35.838,3.41061E-13)"><title>Sheet.1058</title><desc>MM Agent</desc><rect width="62.362" height="14.045" x="0" y="357.212" class="st3"/><text x="5.12" y="367.83" class="st4">MM Agent</text></g><g id="shape1059-82" transform="translate(18.3239,-13.6342)"><title>Rectangle.1027</title><desc>Block RAM</desc><rect width="95.366" height="28.346" x="0" y="342.91" class="st1"/><text x="25.78" y="355.91" class="st7">Block RAM</text></g></g><g id="group1060-86" transform="translate(73.7008,-182.167)"><title>Sheet.1060</title><g id="shape1061-87" transform="translate(35.838,3.41061E-13)"><title>Sheet.1061</title><desc>MM Agent</desc><rect width="62.362" height="14.045" x="0" y="357.212" class="st3"/><text x="5.12" y="367.83" class="st4">MM Agent</text></g><g id="shape1062-90" transform="translate(18.3239,-13.6342)"><title>Rectangle.1027</title><desc>Block RAM</desc><rect width="95.366" height="28.346" x="0" y="342.91" class="st1"/><text x="25.78" y="355.91" class="st7">Block RAM</text></g></g><g id="group1063-94" transform="translate(119.865,-258.703)"><title>Avalon Interconnect.1063</title><g id="shape1064-95"><title>Sheet.1064</title><path d="M0 371.26 L334.49 371.26" class="st14"/></g><g id="shape1065-98" transform="translate(0,-17.0079)"><title>Sheet.1065</title><path d="M0 371.26 L334.49 371.26" class="st14"/></g><g id="shape1066-101" transform="translate(90.7087,-5.68434E-14)"><title>Sheet.1066</title><desc>Avalon Interconnect</desc><rect width="147.402" height="17.008" x="0" y="354.249" class="st15"/><text x="24.31" y="366.35" class="st16">Avalon Interconnect</text></g></g></g></svg>