<svg xmlns="http://www.w3.org/2000/svg" xmlns:ev="http://www.w3.org/2001/xml-events" xmlns:xlink="http://www.w3.org/1999/xlink" width="445.188" height="406.352" class="st23" color-interpolation-filters="sRGB" viewBox="0 0 333.891 304.764" xml:space="preserve"><style type="text/css">.st1{stroke:#c8c8c8;stroke-linecap:butt;stroke-width:1.5}.st2,.st3{stroke:#4672c4}.st2{marker-end:url(#mrkr4-10);stroke-linecap:round;stroke-linejoin:round;stroke-width:1}.st3{fill:#4672c4;fill-opacity:1;stroke-opacity:1;stroke-width:.28409090909091}.st4,.st5{fill:none;stroke:none;stroke-linecap:butt;stroke-width:1.5}.st5{fill:#fff;stroke-width:7.2}.st6{fill:#4672c4;font-family:Calibri;font-size:.833336em}.st7{fill:url(#grad0-24);stroke:#3c63ac;stroke-width:.75}.st8{fill:#3c63ac;font-family:Calibri;font-size:.833336em}.st9{fill:#4672c4;stroke:#c7c8c8;stroke-width:.25}.st10,.st11{fill:#feffff;font-family:Calibri;font-size:1.00001em}.st11{fill:#3c63ac;font-size:.833336em;font-style:italic}.st12{fill:#fff;stroke:#e8ebf4;stroke-width:.75}.st13{fill:#4672c4;font-family:Calibri;font-size:.75em}.st14{font-size:1em}.st15{stroke:none;stroke-linecap:round;stroke-linejoin:round;stroke-width:.75}.st16{fill:#000;font-family:Calibri;font-size:.926422em}.st17,.st18{stroke:#d4d4d4;stroke-linecap:round;stroke-linejoin:round;stroke-width:.75}.st18{fill:#d4d4d4;stroke:none}.st19{fill:#fff}.st20{fill:#4672c4;stroke:#fff;stroke-width:.25}.st21{stroke:#4672c4;stroke-linecap:round;stroke-linejoin:round;stroke-width:1}.st22{fill:#3c63ac;font-family:Calibri;font-size:.666664em}.st23{fill:none;fill-rule:evenodd;font-size:12px;overflow:visible;stroke-linecap:square;stroke-miterlimit:3}</style><defs id="Patterns_And_Gradients"><linearGradient id="grad0-24" x1="0" x2="1" y1="0" y2="0" gradientTransform="rotate(60 0.5 0.5)"><stop offset="0" stop-color="#e8ebf4" stop-opacity="1"/><stop offset=".24" stop-color="#f4f5f9" stop-opacity="1"/><stop offset=".54" stop-color="#feffff" stop-opacity="1"/></linearGradient></defs><defs id="Markers"><g id="lend4"><path d="M 2 1 L 0 0 L 2 -1 L 2 1" style="stroke:none"/></g><marker id="mrkr4-10" class="st3" markerUnits="strokeWidth" orient="auto" overflow="visible" refX="-7.04"><use transform="scale(-3.52,-3.52)" xlink:href="#lend4"/></marker></defs><g><title>Page-1</title><g id="shape1000-1" transform="translate(1.5,-205.551)"><title>2-line bus.1029</title><path d="M0 304.76 L323.15 304.76" class="st1"/><path d="M0 290.59 L323.15 290.59" class="st1"/></g><g id="shape1072-5" transform="translate(99.5391,-239.109)"><title>Dynamic connector.1030</title><path d="M-6.84 304.76 L-7.15 317.11" class="st2"/></g><g id="shape1082-11" transform="translate(1.5,-205.551)"><title>2-line bus.1082</title><desc>Avalon MM Interconnect</desc><rect width="323.15" height="14.173" x="0" y="290.59" class="st4"/><rect width="101.685" height="12" x="110.732" y="291.59" class="st5"/><text x="110.73" y="300.59" class="st6">Avalon MM Interconnect</text></g><g id="shape1083-15" transform="translate(214.263,-205.551)"><title>Dynamic connector.1083</title><path d="M7.09 304.76 L7.09 334.57" class="st2"/></g><g id="group1084-20" transform="translate(30.2633,-239.109)"><title>Sheet.1084</title><g id="shape1070-21" transform="translate(1.59872E-14,-14.6325)"><title>Rectangle.1026</title><desc>JTAG-Avalon MM Master</desc><rect width="124.866" height="25.756" x="0" y="279.008" class="st7"/><text x="4" y="292.01" class="st8">JTAG-Avalon MM Master</text></g><g id="shape1071-26" transform="translate(31.252,0)"><title>Sheet.1071</title><desc>MM Host</desc><rect width="62.362" height="14.173" x="0" y="290.59" class="st9"/><text x="8.31" y="301.28" class="st10">MM Host</text></g></g><g id="shape1038-29" transform="translate(38.8152,-0.75)"><title>Rectangle</title><desc>Kernel</desc><rect width="248.519" height="157.24" x="0" y="147.524" class="st7"/><text x="111.45" y="297.76" class="st11">Kernel</text></g><g id="group1085-33" transform="translate(177.225,-43.2686)"><title>Sheet.1085</title><g id="shape1040-34" transform="translate(0.940386,-8.49508E-09)"><title>Sheet.1040</title><desc>Control/Status Register</desc><rect width="86.368" height="114.904" x="0" y="189.859" class="st12"/><text x="16.47" y="201.96" class="st13">Control/Status <tspan x="28.28" class="st14" dy="1.2em">Register</tspan></text></g><g id="shape1041-38" transform="translate(12.9435,-111.26)"><title>Sheet.1041</title><desc>MM Agent</desc><rect width="62.362" height="14.173" x="0" y="290.59" class="st9"/><text x="5.12" y="301.28" class="st10">MM Agent</text></g><g id="shape1042-41" transform="translate(3.48851,-73.6226)"><title>Sheet.1042</title><desc>Start</desc><path d="M30.07 291.42 L0 291.42 L0 304.76 L30.07 304.76 L30.07 291.42" class="st15"/><text x="4.16" y="301.43" class="st16">Start</text></g><g id="shape1043-45" transform="translate(3.48851,-58.8)"><title>Sheet.1043</title><desc>Done</desc><path d="M32.94 291.42 L0 291.42 L0 304.76 L32.94 304.76 L32.94 291.42" class="st15"/><text x="4.43" y="301.43" class="st16">Done</text></g><g id="shape1044-49" transform="translate(3.23837,-43.9774)"><title>Sheet.1044</title><desc>FinishCounter</desc><path d="M75.16 291.42 L0 291.42 L0 304.76 L75.16 304.76 L75.16 291.42" class="st15"/><text x="6.16" y="301.43" class="st16">FinishCounter</text></g><g id="shape1045-53" transform="translate(1.0775,-89.1901)"><title>Sheet.1045</title><path d="M0 304.76 L85.99 304.76" class="st17"/></g><g id="shape1046-56" transform="translate(1.0775,-88.449)"><title>Sheet.1046</title><path d="M85.99 304.02 L0 304.02 L0 304.76 L85.99 304.76 L85.99 304.02 Z" class="st18"/></g><g id="shape1047-58" transform="translate(1.0775,-74.3675)"><title>Sheet.1047</title><path d="M0 304.76 L85.99 304.76" class="st17"/></g><g id="shape1048-61" transform="translate(1.0775,-73.6264)"><title>Sheet.1048</title><path d="M85.99 304.02 L0 304.02 L0 304.76 L85.99 304.76 L85.99 304.02 Z" class="st18"/></g><g id="shape1049-63" transform="translate(1.0775,-59.5449)"><title>Sheet.1049</title><path d="M0 304.76 L85.99 304.76" class="st17"/></g><g id="shape1050-66" transform="translate(1.0775,-58.8037)"><title>Sheet.1050</title><path d="M85.99 304.02 L0 304.02 L0 304.76 L85.99 304.76 L85.99 304.02 Z" class="st18"/></g><g id="shape1051-68" transform="translate(-1.59872E-14,-44.7222)"><title>Sheet.1051</title><path d="M0 304.76 L79.83 304.76" class="st17"/></g><g id="shape1052-71" transform="translate(1.00024,-43.9811)"><title>Sheet.1052</title><path d="M0 259.55 L0 304.76" class="st17"/></g><g id="shape1053-74" transform="translate(1.0775,-43.9811)"><title>Sheet.1053</title><path d="M0.8 259.55 L0 259.55 L0 304.76 L0.8 304.76 L0.8 259.55 Z" class="st18"/></g><g id="shape1054-76" transform="translate(87.0703,-43.9811)"><title>Sheet.1054</title><path d="M0.8 259.55 L0 259.55 L0 304.76 L0.8 304.76 L0.8 259.55 Z" class="st18"/></g><g id="shape1055-78" transform="translate(4.09252,-31.7271)"><title>Sheet.1055</title><desc>some_arg</desc><path d="M83.81 291.42 L0 291.42 L0 304.76 L83.81 304.76 L83.81 291.42" class="st15"/><text x="0" y="301.43" class="st16">some_arg</text></g><g id="shape1056-82" transform="translate(4.15728,-16.9045)"><title>Sheet.1056</title><desc>some_other_arg</desc><path d="M83.81 291.42 L0 291.42 L0 304.76 L83.81 304.76 L83.81 291.42" class="st15"/><text x="0" y="301.43" class="st16">some_other_arg</text></g><g id="shape1057-86" transform="translate(4.09252,-2.08189)"><title>Sheet.1057</title><desc>some_output</desc><path d="M83.81 291.42 L0 291.42 L0 304.76 L83.81 304.76 L83.81 291.42" class="st15"/><text x="0" y="301.43" class="st16">some_output</text></g><g id="shape1058-90" transform="translate(0.740519,-45.209)"><title>Sheet.1058</title><path d="M0 304.76 L86.37 304.76" class="st17"/></g><g id="shape1059-93" transform="translate(0.740519,-44.4679)"><title>Sheet.1059</title><path d="M86.37 304.02 L0 304.02 L0 304.76 L86.37 304.76 L86.37 304.02 Z" class="st18"/></g><g id="shape1060-95" transform="translate(0.740519,-30.3864)"><title>Sheet.1060</title><path d="M0 304.76 L86.37 304.76" class="st17"/></g><g id="shape1061-98" transform="translate(0.740519,-29.6452)"><title>Sheet.1061</title><path d="M86.37 304.02 L0 304.02 L0 304.76 L86.37 304.76 L86.37 304.02 Z" class="st18"/></g><g id="shape1062-100" transform="translate(0.740519,-15.5638)"><title>Sheet.1062</title><path d="M0 304.76 L86.37 304.76" class="st17"/></g><g id="shape1063-103" transform="translate(0.740519,-14.8226)"><title>Sheet.1063</title><path d="M86.37 304.02 L0 304.02 L0 304.76 L86.37 304.76 L86.37 304.02 Z" class="st18"/></g><g id="shape1064-105" transform="translate(0.740519,-0.741131)"><title>Sheet.1064</title><path d="M0 304.76 L86.37 304.76" class="st17"/></g><g id="shape1065-108" transform="translate(0.740519,0)"><title>Sheet.1065</title><path d="M86.37 304.02 L0 304.02 L0 304.76 L86.37 304.76 L86.37 304.02 Z" class="st18"/></g><g id="shape1066-110" transform="translate(0.740519,-8.49508E-09)"><title>Sheet.1066</title><path d="M0 259.55 L0 304.76" class="st17"/></g><g id="shape1067-113" transform="translate(0.740519,0)"><title>Sheet.1067</title><path d="M0.81 259.55 L0 259.55 L0 304.76 L0.81 304.76 L0.81 259.55 Z" class="st18"/></g><g id="shape1068-115" transform="translate(87.109,-8.49508E-09)"><title>Sheet.1068</title><path d="M0 259.55 L0 304.76" class="st17"/></g><g id="shape1069-118" transform="translate(87.109,0)"><title>Sheet.1069</title><path d="M0.81 259.55 L0 259.55 L0 304.76 L0.81 304.76 L0.81 259.55 Z" class="st18"/></g></g><g id="group1086-120" transform="translate(262.775,-233.898)"><title>Laptop.1086</title><g id="shape1087-121" transform="translate(0,-6.56146)"><title>Sheet.1087</title><path d="M0 304.76 L70.87 304.76 L70.87 297.34 L64.8 287.08 L5.71 287.08 L0 297.34 L0 304.76 ZM64.99 285.39 L64.99 252.95 C64.99 249.67 62.34 247.02 59.06 247.02 L11.64 247.02 C8.37 247.02 5.71 249.67 5.71 252.95 L5.71 285.39 L64.99 285.39 Z" class="st9"/></g><g id="shape1088-123" transform="translate(6.97248,-14.8259)"><title>Sheet.1088</title><path d="M2.86 299.65 L0 304.76 L56.8 304.76 L53.93 299.65 L2.86 299.65 Z" class="st19"/></g><g id="shape1089-126" transform="translate(11.4259,-32.1061)"><title>Sheet.1089</title><rect width="48.015" height="26.651" x="0" y="278.113" class="st20"/></g></g><g id="shape1090-128" transform="translate(155.129,-259.532)"><title>Dynamic connector.1090</title><desc>USB</desc><path d="M0 297.68 L113.36 297.68" class="st21"/><rect width="13.16" height="9.6" x="50.098" y="292.877" class="st5"/><text x="50.1" y="300.08" class="st22">USB</text></g></g></svg>