<svg xmlns="http://www.w3.org/2000/svg" xmlns:ev="http://www.w3.org/2001/xml-events" xmlns:xlink="http://www.w3.org/1999/xlink" width="343.852" height="296.778" class="st14" color-interpolation-filters="sRGB" viewBox="0 0 257.889 222.584" xml:space="preserve"><style type="text/css">.st1{fill:#fff;stroke:#393;stroke-linecap:round;stroke-linejoin:round;stroke-width:.5}.st2{fill:#393;font-family:Segoe UI;font-size:1.00001em;font-stretch:semi-expanded}.st3{fill:#1ba1e2;stroke:#fff;stroke-linecap:round;stroke-linejoin:round;stroke-width:.5}.st4{fill:#fff;font-family:Segoe UI;font-size:.833336em}.st5{fill:#fff;stroke:#1ba1e2;stroke-linecap:round;stroke-linejoin:round;stroke-width:.5}.st6{fill:#1ba1e2;font-family:Segoe UI;font-size:.833336em}.st7,.st8{stroke-linecap:round;stroke-linejoin:round}.st7{fill:#75d175;stroke:#75d175;stroke-width:.5}.st8{marker-end:url(#mrkr4-34);stroke:#1897d5;stroke-width:1.5}.st9{fill:#1897d5;fill-opacity:1;stroke-opacity:1;stroke-width:.37313432835821}.st10,.st11,.st9{stroke:#1897d5}.st10{marker-end:url(#mrkr4-60);stroke-linecap:round;stroke-linejoin:round;stroke-width:.5}.st11{fill:#1897d5;fill-opacity:1;stroke-opacity:1;stroke-width:.16556291390728}.st12,.st13{stroke:#75d175}.st12{marker-end:url(#mrkr4-109);stroke-linecap:butt;stroke-width:4.5}.st13{fill:#75d175;fill-opacity:1;stroke-opacity:1;stroke-width:.64102564102564}.st14{fill:none;fill-rule:evenodd;font-size:12px;overflow:visible;stroke-linecap:square;stroke-miterlimit:3}</style><defs id="Patterns_And_Gradients"><linearGradient id="grad0-11" x1="0" x2="1" y1="0" y2="0" gradientTransform="rotate(90 0.5 0.5)"><stop offset=".01" stop-color="#fff" stop-opacity="1"/><stop offset=".5" stop-color="#fefefe" stop-opacity="1"/><stop offset="1" stop-color="#fff" stop-opacity="1"/></linearGradient><linearGradient id="grad0-15" x1="0" x2="1" y1="0" y2="0" gradientTransform="rotate(270 0.5 0.5)"><stop offset="0" stop-color="#fefefe" stop-opacity="1"/><stop offset="1" stop-color="#fff" stop-opacity="1"/></linearGradient></defs><defs id="Markers"><g id="lend4"><path d="M 2 1 L 0 0 L 2 -1 L 2 1" style="stroke:none"/></g><marker id="mrkr4-34" class="st9" markerUnits="strokeWidth" orient="auto" overflow="visible" refX="-5.36"><use transform="scale(-2.68,-2.68)" xlink:href="#lend4"/></marker><marker id="mrkr4-60" class="st11" markerUnits="strokeWidth" orient="auto" overflow="visible" refX="-12.08"><use transform="scale(-6.04,-6.04)" xlink:href="#lend4"/></marker><marker id="mrkr4-109" class="st13" markerUnits="strokeWidth" orient="auto" overflow="visible" refX="-3.12"><use transform="scale(-1.56,-1.56)" xlink:href="#lend4"/></marker></defs><g><title>Page-1</title><g id="group1035-1" transform="translate(110.174,-53.018)"><title>Plain.1035</title><g id="group1036-2"><title>Sheet.1036</title><g id="shape1037-3" transform="translate(2.83465,2.83465)"><title>Sheet.1037</title></g><g id="shape1036-5"><path d="M0 222.58 L72.44 222.58 L144.88 222.58 L144.88 53.27 L72.44 53.27 L0 53.27 L0 222.58 Z" class="st1"/></g></g><g id="group1038-7" transform="translate(0,-143.804)"><title>Sheet.1038</title><desc>Window (Registers)</desc><g id="shape1039-8"><title>Sheet.1039</title></g><g id="shape1038-12"><text x="6" y="213.43" class="st2">Window (Registers)</text></g></g></g><g id="shape2-17" transform="translate(25.4482,-108.127)"><title>Rectangle</title><desc>Row Buffer</desc><rect width="65.59" height="34.409" x="0" y="188.175" class="st3"/><text x="8.71" y="208.38" class="st4">Row Buffer</text></g><g id="shape3-20" transform="translate(25.4482,-61.522)"><title>Rectangle.3</title><desc>Row Buffer</desc><rect width="65.59" height="34.409" x="0" y="188.175" class="st3"/><text x="8.71" y="208.38" class="st4">Row Buffer</text></g><g id="shape1033-23" transform="translate(41.0388,-153.909)"><title>Square.1033</title><desc>Pixel</desc><rect width="34.409" height="34.409" x="0" y="188.175" class="st5"/><text x="7.07" y="208.38" class="st6">Pixel</text></g><g id="shape1010-26" transform="translate(255.055,418.751) rotate(180)"><title>Trapezoid.1010</title><desc>Window Function</desc><path d="M0 222.58 L144.88 222.58 L133.29 196.42 L11.59 196.42 L0 222.58 Z" class="st7"/><text x="-111.08" y="-206.5" class="st4" transform="rotate(180)">Window Function</text></g><g id="shape1020-29" transform="translate(75.4475,-178.2)"><title>Dynamic connector.1020</title><path d="M0 229.67 L35.19 229.67" class="st8"/></g><g id="shape1022-35" transform="translate(91.0381,-125.331)"><title>Dynamic connector.1022</title><path d="M0 222.58 L10.87 222.58 L10.87 246.34 L-82.05 246.34 L-82.05 269.19 L-73.63 269.19" class="st8"/></g><g id="shape1023-40" transform="translate(91.0381,-132.418)"><title>Dynamic connector.1023</title><path d="M0 229.67 L19.6 229.67" class="st8"/></g><g id="shape1024-45" transform="translate(91.0381,-71.6397)"><title>Dynamic connector.1024</title><path d="M0 215.5 L19.6 215.5" class="st8"/></g><g id="shape1025-50" transform="translate(75.4475,-171.113)"><title>Dynamic connector.1025</title><path d="M0 222.58 L10.87 222.58 L10.87 245.49 L-66.46 245.49 L-66.46 268.37 L-58.04 268.37" class="st8"/></g><g id="shape1026-55" transform="translate(151.63,-164.027)"><title>Dynamic connector.1026</title><path d="M1.46 215.5 L6.68 215.5" class="st10"/></g><g id="shape1027-61" transform="translate(198.362,-164.027)"><title>Dynamic connector.1027</title><path d="M0.39 215.5 L7.74 215.5" class="st10"/></g><g id="shape1028-66" transform="translate(151.63,-118.245)"><title>Dynamic connector.1028</title><path d="M1.46 215.5 L6.68 215.5" class="st10"/></g><g id="shape1029-71" transform="translate(198.362,-118.245)"><title>Dynamic connector.1029</title><path d="M0.39 215.5 L7.74 215.5" class="st10"/></g><g id="shape1030-76" transform="translate(151.63,-71.6397)"><title>Dynamic connector.1030</title><path d="M1.46 215.5 L6.68 215.5" class="st10"/></g><g id="shape1031-81" transform="translate(198.362,-71.6397)"><title>Dynamic connector.1031</title><path d="M0.39 215.5 L7.74 215.5" class="st10"/></g><g id="shape6-86" transform="translate(118.678,-153.909)"><title>Square.6</title><rect width="34.409" height="34.409" x="0" y="188.175" class="st5"/></g><g id="shape1000-88" transform="translate(164.346,-153.909)"><title>Square.1000</title><rect width="34.409" height="34.409" x="0" y="188.175" class="st5"/></g><g id="shape1001-90" transform="translate(212.142,-153.909)"><title>Square.1001</title><rect width="34.409" height="34.409" x="0" y="188.175" class="st5"/></g><g id="shape1002-92" transform="translate(212.142,-108.127)"><title>Square.1002</title><rect width="34.409" height="34.409" x="0" y="188.175" class="st5"/></g><g id="shape1003-94" transform="translate(164.346,-108.127)"><title>Square.1003</title><rect width="34.409" height="34.409" x="0" y="188.175" class="st5"/></g><g id="shape1004-96" transform="translate(118.678,-108.127)"><title>Square.1004</title><rect width="34.409" height="34.409" x="0" y="188.175" class="st5"/></g><g id="shape1005-98" transform="translate(118.678,-61.522)"><title>Square.1005</title><rect width="34.409" height="34.409" x="0" y="188.175" class="st5"/></g><g id="shape1006-100" transform="translate(164.346,-61.522)"><title>Square.1006</title><rect width="34.409" height="34.409" x="0" y="188.175" class="st5"/></g><g id="shape1007-102" transform="translate(212.142,-61.522)"><title>Square.1007</title><rect width="34.409" height="34.409" x="0" y="188.175" class="st5"/></g><g id="shape1040-104" transform="translate(175.528,-53.018)"><title>Dynamic connector.1040</title><path d="M7.09 222.58 L7.09 235.15" class="st12"/></g></g></svg>