<svg xmlns="http://www.w3.org/2000/svg" xmlns:ev="http://www.w3.org/2001/xml-events" xmlns:xlink="http://www.w3.org/1999/xlink" width="527.069" height="449.151" class="st22" color-interpolation-filters="sRGB" viewBox="0 0 395.302 336.863" xml:space="preserve"><style type="text/css">.st1{fill:#fff;stroke:#393;stroke-linecap:round;stroke-linejoin:round;stroke-width:.5}.st2{fill:#393;font-family:Segoe UI;font-size:1.00001em;font-stretch:semi-expanded}.st3{fill:#fff;fill-opacity:0;stroke:#f09609;stroke-linecap:round;stroke-linejoin:round;stroke-width:.5}.st4{fill:#f09609;font-family:Segoe UI;font-size:1.00001em;font-stretch:semi-expanded}.st5{fill:#fff;fill-opacity:0;stroke:#d80073;stroke-linecap:round;stroke-linejoin:round;stroke-width:.5}.st6{fill:#d80073;font-family:Segoe UI;font-size:1.00001em;font-stretch:semi-expanded}.st7{fill:#1ba1e2;stroke:#fff;stroke-linecap:round;stroke-linejoin:round;stroke-width:.5}.st8{fill:#fff;font-family:Segoe UI;font-size:.833336em}.st10,.st9{stroke-linecap:round;stroke-linejoin:round}.st9{fill:#d80073;stroke:#fff;stroke-width:.5}.st10{marker-end:url(#mrkr4-59);stroke:#1897d5;stroke-width:1.5}.st11{fill:#1897d5;fill-opacity:1;stroke-opacity:1;stroke-width:.37313432835821}.st11,.st12,.st13{stroke:#1897d5}.st12{marker-end:url(#mrkr4-75);stroke-linecap:round;stroke-linejoin:round;stroke-width:.5}.st13{fill:#1897d5;fill-opacity:1;stroke-opacity:1;stroke-width:.16556291390728}.st14{fill:#fff;stroke:#1ba1e2;stroke-linecap:round;stroke-linejoin:round;stroke-width:.5}.st15,.st16{stroke:#cc006c}.st15{marker-end:url(#mrkr4-109);stroke-linecap:butt;stroke-width:4.5}.st16{fill:#cc006c;fill-opacity:1;stroke-opacity:1;stroke-width:.64102564102564}.st17{fill:#f09609;stroke:#fff;stroke-linecap:round;stroke-linejoin:round;stroke-width:.5}.st18,.st19{stroke:#e28d07}.st18{marker-end:url(#mrkr4-139);stroke-linecap:butt;stroke-width:4.5}.st19{fill:#e28d07;fill-opacity:1;stroke-opacity:1;stroke-width:.64102564102564}.st20{fill:#1ba1e2;font-family:Segoe UI;font-size:.833336em}.st21{font-size:1em}.st22{fill:none;fill-rule:evenodd;font-size:12px;overflow:visible;stroke-linecap:square;stroke-miterlimit:3}</style><defs id="Patterns_And_Gradients"><linearGradient id="grad0-11" x1="0" x2="1" y1="0" y2="0" gradientTransform="rotate(90 0.5 0.5)"><stop offset=".01" stop-color="#fff" stop-opacity="1"/><stop offset=".5" stop-color="#fefefe" stop-opacity="1"/><stop offset="1" stop-color="#fff" stop-opacity="1"/></linearGradient><linearGradient id="grad0-15" x1="0" x2="1" y1="0" y2="0" gradientTransform="rotate(270 0.5 0.5)"><stop offset="0" stop-color="#fefefe" stop-opacity="1"/><stop offset="1" stop-color="#fff" stop-opacity="1"/></linearGradient><linearGradient id="grad0-27" x1="0" x2="1" y1="0" y2="0" gradientTransform="rotate(90 0.5 0.5)"><stop offset=".01" stop-color="#f0f0f0" stop-opacity="1"/><stop offset=".5" stop-color="#ddd" stop-opacity="1"/><stop offset="1" stop-color="#f0f0f0" stop-opacity="1"/></linearGradient><linearGradient id="grad0-41" x1="0" x2="1" y1="0" y2="0" gradientTransform="rotate(90 0.5 0.5)"><stop offset=".01" stop-color="#f5f5f5" stop-opacity="1"/><stop offset=".5" stop-color="#e8e8e8" stop-opacity="1"/><stop offset="1" stop-color="#f5f5f5" stop-opacity="1"/></linearGradient></defs><defs id="Markers"><g id="lend4"><path d="M 2 1 L 0 0 L 2 -1 L 2 1" style="stroke:none"/></g><marker id="mrkr4-59" class="st11" markerUnits="strokeWidth" orient="auto" overflow="visible" refX="-5.36"><use transform="scale(-2.68,-2.68)" xlink:href="#lend4"/></marker><marker id="mrkr4-75" class="st13" markerUnits="strokeWidth" orient="auto" overflow="visible" refX="-12.08"><use transform="scale(-6.04,-6.04)" xlink:href="#lend4"/></marker><marker id="mrkr4-109" class="st16" markerUnits="strokeWidth" orient="auto" overflow="visible" refX="-3.12"><use transform="scale(-1.56,-1.56)" xlink:href="#lend4"/></marker><marker id="mrkr4-139" class="st19" markerUnits="strokeWidth" orient="auto" overflow="visible" refX="-3.12"><use transform="scale(-1.56,-1.56)" xlink:href="#lend4"/></marker></defs><g><title>Page-1</title><g id="group1035-1" transform="translate(151.155,-136.509)"><title>Plain.1035</title><g id="group1036-2"><title>Sheet.1036</title><g id="shape1037-3" transform="translate(2.83465,2.83465)"><title>Sheet.1037</title></g><g id="shape1036-5"><path d="M0 336.86 L98.98 336.86 L197.95 336.86 L197.95 136.76 L98.98 136.76 L0 136.76 L0 336.86 Z" class="st1"/></g></g><g id="group1038-7" transform="translate(0,-174.592)"><title>Sheet.1038</title><desc>Window (Registers)</desc><g id="shape1039-8"><title>Sheet.1039</title></g><g id="shape1038-12"><text x="6" y="327.71" class="st2">Window (Registers)</text></g></g></g><g id="group1052-17" transform="translate(205.327,-145.013)"><title>Plain.1052</title><g id="group1053-18"><title>Sheet.1053</title><g id="shape1054-19" transform="translate(2.83465,2.83465)"><title>Sheet.1054</title></g><g id="shape1053-21"><path d="M0 336.86 L67.64 336.86 L135.28 336.86 L135.28 179.28 L67.64 179.28 L0 179.28 L0 336.86 Z" class="st3"/></g></g><g id="group1055-23" transform="translate(0,-132.072)"><title>Sheet.1055</title><desc>Window 2</desc><g id="shape1056-24"><title>Sheet.1056</title></g><g id="shape1055-28"><text x="70.5" y="327.71" class="st4">Window 2</text></g></g></g><g id="group1047-31" transform="translate(159.659,-145.013)"><title>Plain.1047</title><g id="group1048-32"><title>Sheet.1048</title><g id="shape1049-33" transform="translate(2.83465,2.83465)"><title>Sheet.1049</title></g><g id="shape1048-35"><path d="M0 336.86 L66.57 336.86 L133.15 336.86 L133.15 179.28 L66.57 179.28 L0 179.28 L0 336.86 Z" class="st5"/></g></g><g id="group1050-37" transform="translate(0,-132.072)"><title>Sheet.1050</title><desc>Window 1</desc><g id="shape1051-38"><title>Sheet.1051</title></g><g id="shape1050-42"><text x="6" y="327.71" class="st6">Window 1</text></g></g></g><g id="shape2-45" transform="translate(69.0675,-194.257)"><title>Rectangle</title><desc>Row Buffer</desc><rect width="65.59" height="34.409" x="0" y="302.454" class="st7"/><text x="8.71" y="322.66" class="st8">Row Buffer</text></g><g id="shape3-48" transform="translate(69.0675,-147.652)"><title>Rectangle.3</title><desc>Row Buffer</desc><rect width="65.59" height="34.409" x="0" y="302.454" class="st7"/><text x="8.71" y="322.66" class="st8">Row Buffer</text></g><g id="shape1010-51" transform="translate(242.295,569.685) rotate(180)"><title>Trapezoid.1010</title><desc>Window Function</desc><path d="M0 336.86 L144.88 336.86 L133.29 310.7 L11.59 310.7 L0 336.86 Z" class="st9"/><text x="-111.08" y="-320.78" class="st8" transform="rotate(180)">Window Function</text></g><g id="shape1022-54" transform="translate(134.657,-211.461)"><title>Dynamic connector.1022</title><path d="M0 336.86 L10.87 336.86 L10.87 360.62 L-82.05 360.62 L-82.05 383.47 L-73.63 383.47" class="st10"/></g><g id="shape1023-60" transform="translate(134.657,-218.548)"><title>Dynamic connector.1023</title><path d="M0 343.95 L25.47 343.95" class="st10"/></g><g id="shape1024-65" transform="translate(134.657,-157.769)"><title>Dynamic connector.1024</title><path d="M0 329.78 L25.47 329.78" class="st10"/></g><g id="shape1026-70" transform="translate(190.84,-250.156)"><title>Dynamic connector.1026</title><path d="M0 329.78 L12.12 329.78 L12.12 309.98 L59.91 309.98 L59.91 329.78 L64.75 329.78" class="st12"/></g><g id="shape1028-76" transform="translate(190.84,-204.374)"><title>Dynamic connector.1028</title><path d="M0 329.78 L12.12 329.78 L12.12 309.74 L59.91 309.74 L59.91 329.78 L64.75 329.78" class="st12"/></g><g id="shape1030-81" transform="translate(190.84,-157.769)"><title>Dynamic connector.1030</title><path d="M0 329.78 L12.12 329.78 L12.12 310.13 L59.91 310.13 L59.91 329.78 L64.75 329.78" class="st12"/></g><g id="shape6-86" transform="translate(168.163,-245.905)"><title>Square.6</title><rect width="22.677" height="22.677" x="0" y="314.186" class="st14"/></g><g id="shape1000-88" transform="translate(213.831,-245.905)"><title>Square.1000</title><rect width="22.677" height="22.677" x="0" y="314.186" class="st14"/></g><g id="shape1001-90" transform="translate(261.627,-245.905)"><title>Square.1001</title><rect width="22.677" height="22.677" x="0" y="314.186" class="st14"/></g><g id="shape1002-92" transform="translate(261.627,-200.122)"><title>Square.1002</title><rect width="22.677" height="22.677" x="0" y="314.186" class="st14"/></g><g id="shape1003-94" transform="translate(213.831,-200.122)"><title>Square.1003</title><rect width="22.677" height="22.677" x="0" y="314.186" class="st14"/></g><g id="shape1004-96" transform="translate(168.163,-200.122)"><title>Square.1004</title><rect width="22.677" height="22.677" x="0" y="314.186" class="st14"/></g><g id="shape1005-98" transform="translate(168.163,-153.517)"><title>Square.1005</title><rect width="22.677" height="22.677" x="0" y="314.186" class="st14"/></g><g id="shape1006-100" transform="translate(213.831,-153.517)"><title>Square.1006</title><rect width="22.677" height="22.677" x="0" y="314.186" class="st14"/></g><g id="shape1007-102" transform="translate(261.627,-153.517)"><title>Square.1007</title><rect width="22.677" height="22.677" x="0" y="314.186" class="st14"/></g><g id="shape1040-104" transform="translate(226.233,-145.013)"><title>Dynamic connector.1040</title><path d="M0 336.86 L0 359.74 L-56.38 359.74 L-56.38 363.79" class="st15"/></g><g id="shape1041-110" transform="translate(309.423,-245.905)"><title>Square.1041</title><rect width="22.677" height="22.677" x="0" y="314.186" class="st14"/></g><g id="shape1042-112" transform="translate(309.423,-199.711)"><title>Square.1042</title><rect width="22.677" height="22.677" x="0" y="314.186" class="st14"/></g><g id="shape1043-114" transform="translate(309.423,-153.517)"><title>Square.1043</title><rect width="22.677" height="22.677" x="0" y="314.186" class="st14"/></g><g id="shape1044-116" transform="translate(236.508,-264.33)"><title>Dynamic connector.1044</title><path d="M0 343.95 L7.16 343.95 L7.16 361.86 L62.04 361.86 L62.04 343.95 L66.87 343.95" class="st12"/></g><g id="shape1045-121" transform="translate(236.508,-218.342)"><title>Dynamic connector.1045</title><path d="M0 343.74 L7.16 343.74 L7.16 365.95 L62.04 365.95 L62.04 344.16 L66.87 344.16" class="st12"/></g><g id="shape1046-126" transform="translate(236.508,-157.769)"><title>Dynamic connector.1046</title><path d="M0 329.78 L7.16 329.78 L7.16 346.98 L62.04 346.98 L62.04 329.78 L66.87 329.78" class="st12"/></g><g id="shape1057-131" transform="translate(395.052,569.685) rotate(180)"><title>Trapezoid.1057</title><desc>Window Function</desc><path d="M0 336.86 L144.88 336.86 L133.29 310.7 L11.59 310.7 L0 336.86 Z" class="st17"/><text x="-111.08" y="-320.78" class="st8" transform="rotate(180)">Window Function</text></g><g id="shape1058-134" transform="translate(272.965,-145.013)"><title>Dynamic connector.1058</title><path d="M0 336.86 L0 359.74 L49.65 359.74 L49.65 363.79" class="st18"/></g><g id="group1059-140" transform="translate(0.25,-240.039)"><title>Sheet.1059</title><g id="shape1060-141" transform="translate(34.4087,5.68434E-14)"><title>Square.1033</title><desc>Pixel1</desc><rect width="34.409" height="34.409" x="0" y="302.454" class="st14"/><text x="4.38" y="322.66" class="st20">Pixel1</text></g><g id="shape1061-144"><title>Square.1045</title><desc>Pixel0</desc><rect width="34.409" height="34.409" x="0" y="302.454" class="st14"/><text x="4.38" y="322.66" class="st20">Pixel0</text></g></g><g id="shape1064-147" transform="translate(134.657,-250.156)"><title>Dynamic connector.1064</title><path d="M0 329.78 L27.47 329.78" class="st12"/></g><g id="shape1065-152" transform="translate(69.0675,-250.156)"><title>Dynamic connector.1065</title><path d="M0 329.78 L14.94 329.78" class="st12"/></g><g id="shape1066-157" transform="translate(90.0439,-240.039)"><title>Rectangle.1066</title><desc>Offset Buffer</desc><rect width="44.614" height="34.409" x="0" y="302.454" class="st7"/><text x="8.98" y="316.66" class="st8">Offset <tspan x="9.13" class="st21" dy="1.2em">Buffer</tspan></text></g><g id="shape1067-161" transform="translate(134.657,-250.156)"><title>Dynamic connector.1067</title><path d="M0 329.78 L22.63 329.78 L22.63 347.69 L71.84 347.69 L71.84 329.78 L73.13 329.78" class="st12"/></g><g id="shape1068-166" transform="translate(134.657,-257.243)"><title>Dynamic connector.1068</title><path d="M0 336.86 L14.47 336.86 L14.47 360 L-82.05 360 L-82.05 382.65 L-73.63 382.65" class="st10"/></g><g id="group1069-171" transform="translate(212.848,-0.25)"><title>Sheet.1069</title><g id="shape1070-172" transform="translate(34.4087,5.68434E-14)"><title>Square.1033</title><desc>Pixel1</desc><rect width="34.409" height="34.409" x="0" y="302.454" class="st14"/><text x="4.38" y="322.66" class="st20">Pixel1</text></g><g id="shape1071-175"><title>Square.1045</title><desc>Pixel0</desc><rect width="34.409" height="34.409" x="0" y="302.454" class="st14"/><text x="4.38" y="322.66" class="st20">Pixel0</text></g></g><g id="shape1072-178" transform="translate(169.854,-77.8757)"><title>Dynamic connector.1072</title><path d="M0 336.86 L0 347.74 L60.2 347.74 L60.2 374.04" class="st12"/></g><g id="shape1073-183" transform="translate(322.611,-77.8757)"><title>Dynamic connector.1073</title><path d="M0 336.86 L0 347.74 L-58.15 347.74 L-58.15 374.04" class="st12"/></g></g></svg>