<svg xmlns="http://www.w3.org/2000/svg" xmlns:ev="http://www.w3.org/2001/xml-events" xmlns:xlink="http://www.w3.org/1999/xlink" width="1243.354" height="215.892" class="st26" color-interpolation-filters="sRGB" viewBox="0 0 932.514 161.919" xml:space="preserve"><style type="text/css">.st1{fill:url(#grad0-4);stroke:#3c63ac;stroke-width:.75}.st2{fill:#3c63ac;font-family:Courier New;font-size:1.16666em}.st3{fill:#4672c4;stroke:#c7c8c8;stroke-width:.25}.st4{fill:#feffff;font-family:Calibri;font-size:1.00001em}.st5{font-size:1em}.st6,.st7{stroke:#4672c4}.st6{marker-end:url(#mrkr4-16);stroke-linecap:round;stroke-linejoin:round;stroke-width:1}.st7{fill:#4672c4;fill-opacity:1;stroke-opacity:1;stroke-width:.28409090909091}.st8{fill:#fff;stroke:none;stroke-linecap:butt}.st9{fill:#3c63ac;font-family:Calibri;font-size:.666664em}.st10{fill:#fff;stroke:none;stroke-linecap:butt;stroke-width:7.2}.st11{fill:#fff;stroke:#000;stroke-width:.75}.st12{fill:#4672c4;font-family:Calibri;font-size:.833336em}.st13{fill:none}.st14{stroke:#c7c8c8;stroke-width:.25}.st15{fill:#000;font-family:Courier New;font-size:.75em}.st16{fill:#4672c4;font-size:1em}.st17{fill:none;stroke:none;stroke-width:.25}.st18{fill:#4672c4;font-family:Calibri;font-size:.75em}.st19{fill:#fff;stroke:none;stroke-width:.75}.st20{fill:#70ad47;font-family:Courier New;font-size:1.00001em}.st21{fill:url(#grad0-220);stroke:#61973d;stroke-width:.75}.st22,.st23{fill:#61973d;font-family:Calibri;font-size:1.16666em}.st23{font-size:1.00001em}.st24,.st25{stroke:#70ad47}.st24{marker-end:url(#mrkr4-232);stroke-linecap:round;stroke-linejoin:round;stroke-width:1}.st25{fill:#70ad47;fill-opacity:1;stroke-opacity:1;stroke-width:.28409090909091}.st26{fill:none;fill-rule:evenodd;font-size:12px;overflow:visible;stroke-linecap:square;stroke-miterlimit:3}.st27{font-size:1em;text-decoration:line-through}</style><defs id="Patterns_And_Gradients"><linearGradient id="grad0-4" x1="0" x2="1" y1="0" y2="0" gradientTransform="rotate(60 0.5 0.5)"><stop offset="0" stop-color="#e8ebf4" stop-opacity="1"/><stop offset=".24" stop-color="#f4f5f9" stop-opacity="1"/><stop offset=".54" stop-color="#feffff" stop-opacity="1"/></linearGradient><linearGradient id="grad0-220" x1="0" x2="1" y1="0" y2="0" gradientTransform="rotate(60 0.5 0.5)"><stop offset="0" stop-color="#ebf1e8" stop-opacity="1"/><stop offset=".24" stop-color="#f5f8f4" stop-opacity="1"/><stop offset=".54" stop-color="#feffff" stop-opacity="1"/></linearGradient></defs><defs id="Markers"><g id="lend4"><path d="M 2 1 L 0 0 L 2 -1 L 2 1" style="stroke:none"/></g><marker id="mrkr4-16" class="st7" markerUnits="strokeWidth" orient="auto" overflow="visible" refX="-7.04"><use transform="scale(-3.52,-3.52)" xlink:href="#lend4"/></marker><marker id="mrkr4-232" class="st25" markerUnits="strokeWidth" orient="auto" overflow="visible" refX="-7.04"><use transform="scale(-3.52,-3.52)" xlink:href="#lend4"/></marker></defs><g><title>Page-1</title><g id="shape1018-1" transform="translate(398.499,-3.58465)"><title>Rectangle</title><desc>Convolution2d</desc><rect width="132.955" height="146.091" x="0" y="15.829" class="st1"/><text x="11.87" y="153.72" class="st2">Convolution2d</text></g><g id="group1019-6" transform="translate(314.013,-28.3878)"><title>Avalon streaming sink.1036</title><g id="shape1020-7" transform="translate(-57.0374,160.502) rotate(-90)"><title>Sheet.1020</title><desc>Streaming Sink</desc><rect width="62.362" height="30.067" x="0" y="131.852" class="st3"/><text x="6.32" y="143.29" class="st4">Streaming <tspan x="21.17" class="st5" dy="1.2em">Sink</tspan></text></g><g id="shape1021-11" transform="translate(74.8144,-48.8976)"><title>Dynamic connector.1014</title><desc>Ready</desc><path d="M0 154.83 L-56.13 154.83" class="st6"/><rect width="19.98" height="9.6" x="-41.576" y="150.033" class="st8"/><text x="-41.58" y="157.23" class="st9">Ready</text></g><g id="shape1022-19" transform="translate(11.6423,-33.3071)"><title>Dynamic connector.1015</title><desc>Valid</desc><path d="M0 154.83 L56.13 154.83" class="st6"/><rect width="16.246" height="9.6" x="23.463" y="150.033" class="st10"/><text x="23.46" y="157.23" class="st9">Valid</text></g><g id="shape1023-26" transform="translate(11.6423,-17.7165)"><title>Dynamic connector.1016</title><desc>Data</desc><path d="M0 154.83 L56.13 154.83" class="st6"/><rect width="15.265" height="9.6" x="23.953" y="150.033" class="st10"/><text x="23.95" y="157.23" class="st9">Data</text></g><g id="shape1024-33" transform="translate(11.6423,-2.12598)"><title>Dynamic connector.1017</title><desc>&lt;other signals&gt;</desc><path d="M0 154.83 L56.13 154.83" class="st6"/><rect width="49.379" height="9.6" x="6.897" y="150.033" class="st10"/><text x="6.9" y="157.23" class="st9">&lt;other signals&gt;</text></g></g><g id="group1025-40" transform="translate(512.058,-29.0965)"><title>Avalon streaming Source.1042</title><g id="shape1026-41" transform="translate(161.919,99.5571) rotate(90)"><title>Sheet.1026</title><desc>Streaming Source</desc><rect width="62.362" height="30.067" x="0" y="131.852" class="st3"/><text x="6.32" y="143.29" class="st4">Streaming <tspan x="14.49" class="st5" dy="1.2em">Source</tspan></text></g></g><g id="group1031-45" transform="translate(424.648,-52.9099)"><title>CSR</title><g id="group1032-46"><title>Sheet.1032</title><g id="shape1033-47"><title>Corner table.1033</title><desc>CSR</desc><path d="M80.66 161.07 a0.847424 0.847424 0 0 1 -0.847424 0.847424 L0.85 161.92 a0.847424 0.847424 0 0 1 -0.847424 -0.847424 L0 61.09 a0.847424 0.847424 0 0 1 0.847424 -0.847424 L79.81 60.25 a0.847424 0.847424 0 0 1 0.847424 0.847424 L80.66 61.09 L80.66 161.07 Z" class="st11"/><text x="34.29" y="79.88" class="st12">CSR</text></g><g id="shape1034-50"><title>Data table.1032</title><desc>START STATUS ... ARG_0 ...</desc><path d="M0 159.08 L80.66 159.08 L80.66 88.22 L0 88.22 L0 159.08 Z" class="st13"/><path d="M0 159.08 L80.66 159.08 L80.66 88.22 L0 88.22 L0 159.08" class="st14"/><path d="M0 102.39 L80.66 102.39" class="st14"/><path d="M0 116.56 L80.66 116.56" class="st14"/><path d="M0 130.74 L80.66 130.74" class="st14"/><path d="M0 144.91 L80.66 144.91" class="st14"/><text x="4" y="98.85" class="st15">START<tspan x="4" class="st5" dy="1.575em">STATUS</tspan><tspan x="4" class="st5" dy="1.575em">...</tspan><tspan x="4" class="st5" dy="1.575em">ARG_0</tspan><tspan x="4" class="st16" dy="1.575em">...</tspan></text></g></g><g id="shape1035-62" transform="translate(9.14735,-94.5861)"><title>Sheet.1035</title><desc>MM Agent</desc><rect width="62.362" height="14.173" x="0" y="147.746" class="st3"/><text x="5.12" y="158.43" class="st4">MM Agent</text></g></g><g id="shape1037-65" transform="translate(224.721,-3.58465)"><title>Rectangle.1037</title><desc>RGB2Grey</desc><rect width="87.874" height="146.091" x="0" y="15.829" class="st1"/><text x="10.33" y="153.72" class="st2">RGB2Grey</text></g><g id="shape1038-69" transform="translate(224.721,-115.659)"><title>Sheet.1038</title><desc>Start</desc><rect width="36.85" height="20" x="0" y="141.919" class="st17"/><text x="4" y="154.62" class="st18">Start</text></g><g id="shape1039-72" transform="translate(255.902,-115.659)"><title>Sheet.1039</title><desc>Done</desc><rect width="56.693" height="20" x="0" y="141.919" class="st17"/><text x="33.2" y="154.62" class="st18">Done</text></g><g id="shape1040-75" transform="translate(255.902,-98.2815)"><title>Sheet.1040</title><desc>Ready_in</desc><rect width="56.693" height="20" x="0" y="141.919" class="st17"/><text x="18.94" y="154.62" class="st18"><tspan class="st27">Ready_in</tspan></text></g><g id="shape1041-78" transform="translate(224.721,-98.6516)"><title>Sheet.1041</title><desc>Ready_out</desc><rect width="68.306" height="20" x="0" y="141.919" class="st17"/><text x="4" y="154.62" class="st18">Ready_out</text></g><g id="shape1042-81" transform="translate(175.115,-136.919)"><title>Sheet.1042</title><desc>high</desc><rect width="36.85" height="17.008" x="0" y="144.911" class="st19"/><text x="4.02" y="157.02" class="st20">high</text></g><g id="shape1044-84" transform="translate(193.54,-138.762)"><title>Dynamic connector.1021</title><path d="M0 163.76 L0 174.25 L24.14 174.25" class="st6"/></g><g id="group1046-89" transform="translate(141.099,-29.0965)"><title>Avalon streaming sink.1046</title><g id="shape1047-90" transform="translate(-57.0374,161.919) rotate(-90)"><title>Sheet.1047</title><desc>Streaming Sink</desc><rect width="62.362" height="30.067" x="0" y="131.852" class="st3"/><text x="6.32" y="143.29" class="st4">Streaming <tspan x="21.17" class="st5" dy="1.2em">Sink</tspan></text></g><g id="shape1048-94" transform="translate(74.8144,-47.4803)"><title>Dynamic connector.1014</title><desc>Ready</desc><path d="M0 154.83 L-61.09 154.83" class="st6"/><rect width="19.98" height="9.6" x="-44.056" y="150.033" class="st8"/><text x="-44.06" y="157.23" class="st9">Ready</text></g><g id="shape1049-101" transform="translate(6.68168,-46.063)"><title>Dynamic connector.1015</title><desc>Valid</desc><path d="M0 169.01 L61.09 169.01" class="st6"/><rect width="16.246" height="9.6" x="25.943" y="164.206" class="st10"/><text x="25.94" y="171.41" class="st9">Valid</text></g><g id="shape1050-108" transform="translate(6.68168,-30.4724)"><title>Dynamic connector.1016</title><desc>Data</desc><path d="M0 169.01 L61.09 169.01" class="st6"/><rect width="15.265" height="9.6" x="26.434" y="164.206" class="st10"/><text x="26.43" y="171.41" class="st9">Data</text></g><g id="shape1051-115" transform="translate(6.68168,-14.8819)"><title>Dynamic connector.1017</title><desc>&lt;other signals&gt;</desc><path d="M0 169.01 L61.09 169.01" class="st6"/><rect width="49.379" height="9.6" x="9.377" y="164.206" class="st8"/><text x="9.38" y="171.41" class="st9">&lt;other signals&gt;</text></g></g><g id="group1052-122" transform="translate(295.588,-29.8051)"><title>Avalon streaming Source.1052</title><g id="shape1053-123" transform="translate(161.919,99.5571) rotate(90)"><title>Sheet.1053</title><desc>Streaming Source</desc><rect width="62.362" height="30.067" x="0" y="131.852" class="st3"/><text x="6.32" y="143.29" class="st4">Streaming <tspan x="14.49" class="st5" dy="1.2em">Source</tspan></text></g></g><g id="shape1055-127" transform="translate(613.68,-3.58465)"><title>Rectangle.1055</title><desc>Grey2RGB</desc><rect width="87.874" height="146.091" x="0" y="15.829" class="st1"/><text x="10.33" y="153.72" class="st2">Grey2RGB</text></g><g id="shape1056-131" transform="translate(613.615,-120.175)"><title>Sheet.1056</title><desc>Start</desc><rect width="36.85" height="20" x="0" y="141.919" class="st17"/><text x="4" y="154.62" class="st18">Start</text></g><g id="shape1057-134" transform="translate(644.796,-120.175)"><title>Sheet.1057</title><desc>Done</desc><rect width="56.693" height="20" x="0" y="141.919" class="st17"/><text x="33.2" y="154.62" class="st18">Done</text></g><g id="shape1058-137" transform="translate(644.796,-102.797)"><title>Sheet.1058</title><desc>Ready_in</desc><rect width="56.693" height="20" x="0" y="141.919" class="st17"/><text x="18.94" y="154.62" class="st18"><tspan class="st27">Ready_in</tspan></text></g><g id="shape1059-140" transform="translate(613.615,-103.167)"><title>Sheet.1059</title><desc>Ready_out</desc><rect width="68.306" height="20" x="0" y="141.919" class="st17"/><text x="4" y="154.62" class="st18">Ready_out</text></g><g id="shape1060-143" transform="translate(564.008,-141.435)"><title>Sheet.1060</title><desc>high</desc><rect width="36.85" height="17.008" x="0" y="144.911" class="st19"/><text x="4.02" y="157.02" class="st20">high</text></g><g id="shape1061-146" transform="translate(582.433,-143.278)"><title>Dynamic connector.1061</title><path d="M0 163.76 L0 174.25 L24.14 174.25" class="st6"/></g><g id="group1063-151" transform="translate(530.919,-29.0965)"><title>Avalon streaming sink.1063</title><g id="shape1064-152" transform="translate(-57.0374,161.919) rotate(-90)"><title>Sheet.1064</title><desc>Streaming Sink</desc><rect width="62.362" height="30.067" x="0" y="131.852" class="st3"/><text x="6.32" y="143.29" class="st4">Streaming <tspan x="21.17" class="st5" dy="1.2em">Sink</tspan></text></g><g id="shape1065-156" transform="translate(74.8144,-47.4803)"><title>Dynamic connector.1014</title><desc>Ready</desc><path d="M0 154.83 L-56.57 154.83" class="st6"/><rect width="19.98" height="9.6" x="-41.794" y="150.033" class="st10"/><text x="-41.79" y="157.23" class="st9">Ready</text></g><g id="shape1066-163" transform="translate(11.2071,-46.063)"><title>Dynamic connector.1015</title><desc>Valid</desc><path d="M0 169.01 L56.57 169.01" class="st6"/><rect width="16.246" height="9.6" x="23.681" y="164.206" class="st8"/><text x="23.68" y="171.41" class="st9">Valid</text></g><g id="shape1067-170" transform="translate(11.2071,-30.4724)"><title>Dynamic connector.1016</title><desc>Data</desc><path d="M0 169.01 L56.57 169.01" class="st6"/><rect width="15.265" height="9.6" x="24.171" y="164.206" class="st8"/><text x="24.17" y="171.41" class="st9">Data</text></g><g id="shape1068-177" transform="translate(11.2071,-14.8819)"><title>Dynamic connector.1017</title><desc>&lt;other signals&gt;</desc><path d="M0 169.01 L56.57 169.01" class="st6"/><rect width="49.379" height="9.6" x="7.114" y="164.206" class="st10"/><text x="7.11" y="171.41" class="st9">&lt;other signals&gt;</text></g></g><g id="group1069-184" transform="translate(684.481,-29.0965)"><title>Avalon streaming Source.1069</title><g id="shape1070-185" transform="translate(161.919,99.5571) rotate(90)"><title>Sheet.1070</title><desc>Streaming Source</desc><rect width="62.362" height="30.067" x="0" y="131.852" class="st3"/><text x="6.32" y="143.29" class="st4">Streaming <tspan x="14.49" class="st5" dy="1.2em">Source</tspan></text></g><g id="shape1071-189" transform="translate(94.414,-47.4803)"><title>Dynamic connector.1018</title><desc>Ready</desc><path d="M0 154.83 L-57.31 154.83" class="st6"/><rect width="19.98" height="9.6" x="-42.163" y="150.033" class="st10"/><text x="-42.16" y="157.23" class="st9">Ready</text></g><g id="shape1072-196" transform="translate(30.0675,-46.063)"><title>Dynamic connector.1019</title><desc>Valid</desc><path d="M0 169.01 L57.31 169.01" class="st6"/><rect width="16.246" height="9.6" x="24.05" y="164.206" class="st10"/><text x="24.05" y="171.41" class="st9">Valid</text></g><g id="shape1073-203" transform="translate(30.0675,-30.4724)"><title>Dynamic connector.1020</title><desc>Data</desc><path d="M0 169.01 L57.31 169.01" class="st6"/><rect width="15.265" height="9.6" x="24.541" y="164.206" class="st8"/><text x="24.54" y="171.41" class="st9">Data</text></g><g id="shape1074-210" transform="translate(30.0675,-14.8819)"><title>Dynamic connector.1021</title><desc>&lt;other signals&gt;</desc><path d="M0 169.01 L57.31 169.01" class="st6"/><rect width="49.379" height="9.6" x="7.484" y="164.206" class="st8"/><text x="7.48" y="171.41" class="st9">&lt;other signals&gt;</text></g></g><g id="shape1075-217" transform="translate(793.679,-3.58465)"><title>Rectangle.42</title><desc>Gasket</desc><rect width="56.693" height="113.386" x="0" y="48.533" class="st21"/><text x="8.83" y="153.72" class="st22">Gasket</text></g><g id="group1076-222" transform="translate(836.769,-24.398)"><title>AXI4S-Transmitter.50</title><g id="shape1077-223" transform="translate(161.919,90.1602) rotate(90)"><title>Sheet.1077</title><desc>Transmitter</desc><rect width="71.716" height="30.067" x="0" y="131.852" class="st21"/><text x="7.2" y="150.49" class="st23">Transmitter</text></g><g id="shape1078-227" transform="translate(87.874,-57.3732)"><title>Dynamic connector.1018</title><desc>TREADY</desc><path d="M0 154.96 L-50.77 154.74" class="st24"/><rect width="25.598" height="9.6" x="-41.702" y="150.033" class="st10"/><text x="-41.7" y="157.23" class="st9">TREADY</text></g><g id="shape1079-235" transform="translate(30.0675,-57.2031)"><title>Dynamic connector.1019</title><desc>TVALID</desc><path d="M0 168.88 L50.77 169.1" class="st24"/><rect width="23.367" height="9.6" x="17.22" y="164.206" class="st10"/><text x="17.22" y="171.41" class="st9">TVALID</text></g><g id="shape1080-242" transform="translate(30.0675,-42.8862)"><title>Dynamic connector.1020</title><desc>TDATA</desc><path d="M0 168.9 L50.77 169.08" class="st24"/><rect width="21.977" height="9.6" x="17.915" y="164.206" class="st10"/><text x="17.92" y="171.41" class="st9">TDATA</text></g><g id="shape1081-249" transform="translate(30.0675,-28.5165)"><title>Dynamic connector.1021</title><desc>TUSER</desc><path d="M0 168.88 L50.77 169.1" class="st24"/><rect width="20.957" height="9.6" x="18.425" y="164.206" class="st10"/><text x="18.42" y="171.41" class="st9">TUSER</text></g><g id="shape1082-256" transform="translate(30.0675,-14.1732)"><title>Dynamic connector.12</title><desc>TLAST</desc><path d="M0 168.88 L50.77 169.1" class="st24"/><rect width="19.465" height="9.6" x="19.171" y="164.206" class="st10"/><text x="19.17" y="171.41" class="st9">TLAST</text></g></g><g id="shape1083-263" transform="translate(647.043,132.823) rotate(-90)"><title>Avalon streaming sink.1037</title><desc>Streaming Sink</desc><rect width="62.362" height="30.067" x="0" y="131.852" class="st21"/><text x="6.32" y="143.29" class="st23">Streaming <tspan x="21.17" class="st5" dy="1.2em">Sink</tspan></text></g><g id="shape1084-268" transform="translate(76.0459,-0.75)"><title>Rectangle.1023</title><desc>Gasket</desc><rect width="56.693" height="113.386" x="0" y="48.533" class="st21"/><text x="8.83" y="153.72" class="st22">Gasket</text></g><g id="shape1085-272" transform="translate(279.633,70.4606) rotate(90)"><title>Sheet.1085</title><desc>Streaming Source</desc><rect width="62.362" height="30.067" x="0" y="131.852" class="st21"/><text x="6.32" y="143.29" class="st23">Streaming <tspan x="14.49" class="st5" dy="1.2em">Source</tspan></text></g><g id="group1086-277" transform="translate(7.87096,-23.4272)"><title>AXI4S-Receiver.1026</title><g id="shape1087-278" transform="translate(57.8065,-57.5858)"><title>Dynamic connector.1018</title><desc>TREADY</desc><path d="M0 154.96 L-50.77 154.74" class="st24"/><rect width="25.598" height="9.6" x="-41.702" y="150.033" class="st10"/><text x="-41.7" y="157.23" class="st9">TREADY</text></g><g id="shape1088-285" transform="translate(5.11591E-13,-57.4157)"><title>Dynamic connector.1019</title><desc>TVALID</desc><path d="M0 168.88 L50.77 169.1" class="st24"/><rect width="23.367" height="9.6" x="17.22" y="164.206" class="st10"/><text x="17.22" y="171.41" class="st9">TVALID</text></g><g id="shape1089-292" transform="translate(4.47642E-13,-43.0724)"><title>Dynamic connector.1020</title><desc>TDATA</desc><path d="M0 168.88 L50.77 169.1" class="st24"/><rect width="21.977" height="9.6" x="17.915" y="164.206" class="st10"/><text x="17.92" y="171.41" class="st9">TDATA</text></g><g id="shape1090-299" transform="translate(0,-28.7291)"><title>Dynamic connector.1021</title><desc>TUSER</desc><path d="M0 168.88 L50.77 169.1" class="st24"/><rect width="20.957" height="9.6" x="18.425" y="164.206" class="st10"/><text x="18.42" y="171.41" class="st9">TUSER</text></g><g id="shape1091-306" transform="translate(3.79696E-13,-14.3858)"><title>Dynamic connector.12</title><desc>TLAST</desc><path d="M0 168.88 L50.77 169.1" class="st24"/><rect width="19.465" height="9.6" x="19.171" y="164.206" class="st10"/><text x="19.17" y="171.41" class="st9">TLAST</text></g><g id="shape1092-313" transform="translate(-74.0453,161.919) rotate(-90)"><title>Sheet.1092</title><desc>Receiver</desc><rect width="71.716" height="30.067" x="0" y="131.852" class="st21"/><text x="14.93" y="150.49" class="st23">Receiver</text></g></g></g></svg>