<svg xmlns="http://www.w3.org/2000/svg" xmlns:ev="http://www.w3.org/2001/xml-events" xmlns:xlink="http://www.w3.org/1999/xlink" width="1225.277" height="538.748" class="st22" color-interpolation-filters="sRGB" viewBox="0 0 918.959 404.061" xml:space="preserve"><style type="text/css">.st1{fill:#fff;stroke:#393;stroke-linecap:round;stroke-linejoin:round;stroke-width:.5}.st2{fill:#393;font-family:Segoe UI;font-size:1.00001em;font-stretch:semi-expanded}.st3{font-size:1em}.st4{font-family:Consolas;font-size:.666659em}.st5,.st6{font-size:.499989em}.st6{font-family:Consolas}.st7{fill:#1ba1e2;stroke:#fff;stroke-linecap:round;stroke-linejoin:round;stroke-width:.5}.st8,.st9{fill:#fff;font-family:Consolas;font-size:1.16666em}.st9{font-family:Segoe UI}.st10,.st11{stroke:#1897d5}.st10{marker-end:url(#mrkr4-90);stroke-linecap:round;stroke-linejoin:round;stroke-width:.5}.st11{fill:#1897d5;fill-opacity:1;stroke-opacity:1;stroke-width:.16556291390728}.st12{fill:#393;stroke:#fff;stroke-linecap:round;stroke-linejoin:round;stroke-width:.5}.st13,.st14{fill:#fff;font-family:Segoe UI;font-size:.833336em}.st14{font-size:1.00001em}.st15,.st16{stroke:#2f902f}.st15{marker-end:url(#mrkr4-126);stroke-linecap:round;stroke-linejoin:round;stroke-width:.5}.st16{fill:#2f902f;fill-opacity:1;stroke-opacity:1;stroke-width:.16556291390728}.st17{fill:#fff;stroke:none;stroke-linecap:butt}.st18{fill:#237023;font-family:Segoe UI;font-size:.666664em}.st19{fill:#fff;stroke:none;stroke-linecap:butt;stroke-width:7.2}.st20{fill:#393;font-family:Segoe UI;font-size:.833336em}.st21{stroke:#1897d5;stroke-linecap:round;stroke-linejoin:round;stroke-width:.5}.st22{fill:none;fill-rule:evenodd;font-size:12px;overflow:visible;stroke-linecap:square;stroke-miterlimit:3}</style><defs id="Patterns_And_Gradients"><linearGradient id="grad0-11" x1="0" x2="1" y1="0" y2="0" gradientTransform="rotate(90 0.5 0.5)"><stop offset=".01" stop-color="#fff" stop-opacity="1"/><stop offset=".5" stop-color="#fefefe" stop-opacity="1"/><stop offset="1" stop-color="#fff" stop-opacity="1"/></linearGradient><linearGradient id="grad0-15" x1="0" x2="1" y1="0" y2="0" gradientTransform="rotate(270 0.5 0.5)"><stop offset="0" stop-color="#fefefe" stop-opacity="1"/><stop offset="1" stop-color="#fff" stop-opacity="1"/></linearGradient></defs><defs id="Markers"><g id="lend4"><path d="M 2 1 L 0 0 L 2 -1 L 2 1" style="stroke:none"/></g><marker id="mrkr4-90" class="st11" markerUnits="strokeWidth" orient="auto" overflow="visible" refX="-12.08"><use transform="scale(-6.04,-6.04)" xlink:href="#lend4"/></marker><marker id="mrkr4-126" class="st16" markerUnits="strokeWidth" orient="auto" overflow="visible" refX="-12.08"><use transform="scale(-6.04,-6.04)" xlink:href="#lend4"/></marker></defs><g><title>Page-1</title><g id="group1032-1" transform="translate(609.841,-2.83465)"><title>Plain.1032</title><g id="group1033-2"><title>Sheet.1033</title><g id="shape1034-3" transform="translate(2.83465,2.83465)"><title>Sheet.1034</title></g><g id="shape1033-5"><path d="M0 404.06 L153.14 404.06 L306.28 404.06 L306.28 277.92 L153.14 277.92 L0 277.92 L0 404.06 Z" class="st1"/></g></g><g id="group1035-7" transform="translate(0,-100.63)"><title>Sheet.1035</title><desc>Pixel Beat (sycl::ext::intel::experimental::StreamingBeat)</desc><g id="shape1036-8"><title>Sheet.1036</title></g><g id="shape1035-12"><text x="6" y="394.91" class="st2">Pixel Beat<tspan class="st3"> </tspan><tspan class="st3">(</tspan><tspan class="st4">sycl::ext::intel::experimental::StreamingBeat</tspan><tspan class="st3">)</tspan></text></g></g></g><g id="group1027-21" transform="translate(618.345,-11.3386)"><title>Plain.1027</title><g id="group1028-22"><title>Sheet.1028</title><g id="shape1029-23" transform="translate(2.83465,2.83465)"><title>Sheet.1029</title></g><g id="shape1028-25"><path d="M0 404.06 L104.95 404.06 L209.91 404.06 L209.91 320.44 L104.95 320.44 L0 320.44 L0 404.06 Z" class="st1"/></g></g><g id="group1030-27" transform="translate(0,-45.3543)"><title>Sheet.1030</title><desc>Pixel Bundle (fpga_tools::DataBundle&lt;PixelType, kParallelPixels&gt;)</desc><g id="shape1031-28"><title>Sheet.1031</title></g><g id="shape1030-31"><text x="6" y="381.33" class="st2">Pixel Bundle<tspan class="st3"> </tspan><tspan x="6" class="st5" dy="2.4em">(</tspan><tspan class="st6">fpga_tools::DataBundle&lt;PixelType, kParallelPixels&gt;</tspan><tspan class="st5">)</tspan></text></g></g></g><g id="group1076-39" transform="translate(0.25,-2.83465)"><title>Plain.1076</title><g id="group1077-40"><title>Sheet.1077</title><g id="shape1078-41" transform="translate(2.83465,2.83465)"><title>Sheet.1078</title></g><g id="shape1077-43"><path d="M0 404.06 L153.14 404.06 L306.28 404.06 L306.28 277.92 L153.14 277.92 L0 277.92 L0 404.06 Z" class="st1"/></g></g><g id="group1079-45" transform="translate(0,-100.63)"><title>Sheet.1079</title><desc>Pixel Beat (sycl::ext::intel::experimental::StreamingBeat)</desc><g id="shape1080-46"><title>Sheet.1080</title></g><g id="shape1079-49"><text x="6" y="394.91" class="st2">Pixel Beat<tspan class="st3"> </tspan><tspan class="st3">(</tspan><tspan class="st4">sycl::ext::intel::experimental::StreamingBeat</tspan><tspan class="st3">)</tspan></text></g></g></g><g id="group1081-57" transform="translate(8.75394,-11.3386)"><title>Plain.1081</title><g id="group1082-58"><title>Sheet.1082</title><g id="shape1083-59" transform="translate(2.83465,2.83465)"><title>Sheet.1083</title></g><g id="shape1082-61"><path d="M0 404.06 L104.95 404.06 L209.91 404.06 L209.91 320.44 L104.95 320.44 L0 320.44 L0 404.06 Z" class="st1"/></g></g><g id="group1084-63" transform="translate(0,-45.3543)"><title>Sheet.1084</title><desc>Pixel Bundle (fpga_tools::DataBundle&lt;PixelType, kParallelPixels&gt;)</desc><g id="shape1085-64"><title>Sheet.1085</title></g><g id="shape1084-67"><text x="6" y="381.33" class="st2">Pixel Bundle<tspan class="st3"> </tspan><tspan x="6" class="st5" dy="2.4em">(</tspan><tspan class="st6">fpga_tools::DataBundle&lt;PixelType, kParallelPixels&gt;</tspan><tspan class="st5">)</tspan></text></g></g></g><g id="shape1001-75" transform="translate(200.234,-375.464)"><title>Rectangle.1001</title><desc>main()</desc><rect width="496.417" height="28.346" x="0" y="375.714" class="st7"/><text x="225.12" y="394.09" class="st8">main()</text></g><g id="shape1004-78" transform="translate(200.234,-320.022)"><title>Rectangle.1004</title><desc>Place input image in an array</desc><rect width="189.213" height="28.346" x="0" y="375.714" class="st7"/><text x="5.22" y="394.09" class="st9">Place input image in an array</text></g><g id="shape1005-81" transform="translate(507.085,-318.771)"><title>Rectangle.1005</title><desc>Consume output image</desc><rect width="189.213" height="28.346" x="0" y="375.714" class="st7"/><text x="21.8" y="394.09" class="st9">Consume <tspan class="st3">output image</tspan></text></g><g id="shape1006-85" transform="translate(365.707,-375.464)"><title>Dynamic connector.1006</title><path d="M0 404.06 L0 414.93 L-70.87 414.93 L-70.87 425.12" class="st10"/></g><g id="shape1007-91" transform="translate(287.754,-320.022)"><title>Dynamic connector.1007</title><path d="M7.09 404.06 L7.09 417.52" class="st10"/></g><g id="shape1008-96" transform="translate(594.604,-299.769)"><title>Dynamic connector.1008</title><path d="M7.09 404.06 L7.09 391.1" class="st10"/></g><g id="shape1009-101" transform="translate(601.691,-347.118)"><title>Dynamic connector.1009</title><path d="M0 404.06 L0 393.19 L-70.51 393.19 L-70.51 381.75" class="st10"/></g><g id="shape1012-106" transform="translate(626.848,-19.8425)"><title>Rectangle.1012</title><desc>Pixel_rgb</desc><rect width="65.197" height="28.346" x="0" y="375.714" class="st12"/><text x="12.77" y="392.89" class="st13">Pixel_rgb</text></g><g id="shape1018-109" transform="translate(707.636,-19.8425)"><title>Rectangle.1018</title><desc>Pixel_rgb</desc><rect width="65.197" height="28.346" x="0" y="375.714" class="st12"/><text x="12.77" y="392.89" class="st13">Pixel_rgb</text></g><g id="shape1019-112" transform="translate(788.423,-19.8425)"><title>Sheet.1019</title><desc>...</desc><rect width="31.323" height="28.346" x="0" y="375.714" class="st12"/><text x="11.76" y="393.49" class="st14">...</text></g><g id="shape1025-115" transform="translate(835.337,-18.4252)"><title>Square.1025</title><desc>SoP</desc><rect width="28.346" height="28.346" x="0" y="375.714" class="st12"/><text x="5.79" y="392.89" class="st13">SoP</text></g><g id="shape1026-118" transform="translate(879.274,-18.4252)"><title>Square.1026</title><desc>EoP</desc><rect width="28.346" height="28.346" x="0" y="375.714" class="st12"/><text x="5.91" y="392.89" class="st13">EoP</text></g><g id="shape1061-121" transform="translate(581.848,-221.513)"><title>Dynamic connector.1018</title><desc>Ready</desc><path d="M0 404.06 L0 446.55 L-49.24 446.55" class="st15"/><rect width="21.621" height="9.6" x="-17.206" y="441.746" class="st17"/><text x="-17.21" y="448.95" class="st18">Ready</text></g><g id="shape1062-129" transform="translate(526.573,-166.839)"><title>Dynamic connector.1019</title><desc>Valid</desc><path d="M0 404.06 L69.45 404.06 L69.45 355.43" class="st15"/><rect width="17.625" height="9.6" x="53.249" y="399.261" class="st19"/><text x="53.25" y="406.46" class="st18">Valid</text></g><g id="shape1063-136" transform="translate(526.573,-152.666)"><title>Dynamic connector.1020</title><desc>Data</desc><path d="M0 404.06 L83.62 404.06 L83.62 341.25" class="st15"/><rect width="16.46" height="9.6" x="68.004" y="399.261" class="st19"/><text x="68" y="406.46" class="st18">Data</text></g><g id="shape1064-143" transform="translate(526.573,-138.493)"><title>Dynamic connector.1021</title><desc>SOP/EOP</desc><path d="M0 404.06 L95.81 404.06 L95.81 327.08" class="st15"/><rect width="32.437" height="9.6" x="73.197" y="399.261" class="st17"/><text x="73.2" y="406.46" class="st18">SOP/EOP</text></g><g id="group1065-150" transform="translate(292.411,-116.22)"><title>Sheet.1065</title><g id="shape1011-151" transform="translate(88.3865,5.68434E-14)"><title>Rectangle.1011</title><desc>Kernel</desc><rect width="138.385" height="85.039" x="0" y="319.021" class="st1"/><text x="55.28" y="364.54" class="st20">Kernel</text></g><g id="shape1060-154" transform="translate(608.155,330.765) rotate(90)"><title>Sheet.1060</title><desc>Streaming Source</desc><rect width="62.362" height="30.067" x="0" y="373.993" class="st12"/><text x="4.13" y="385.43" class="st14">Streaming <tspan x="13.09" class="st3" dy="1.2em">Source</tspan></text></g><g id="group1039-158" transform="translate(2.39808E-14,-11.3386)"><title>Avalon streaming sink.1039</title><g id="shape1040-159" transform="translate(-289.814,404.061) rotate(-90)"><title>Sheet.1040</title><desc>Streaming Sink</desc><rect width="62.362" height="32.752" x="0" y="371.309" class="st12"/><text x="4.13" y="384.08" class="st14">Streaming <tspan x="20.16" class="st3" dy="1.2em">Sink</tspan></text></g></g></g><g id="group1066-163" transform="translate(526.573,-221.513)"><title>Sheet.1066</title><g id="shape1003-164" transform="translate(-9.74409,-30.0675)"><title>Rectangle.1003</title><desc>vvp_stream_adapters:: ReadFrameFromPipe</desc><rect width="169.724" height="48.189" x="0" y="355.872" class="st7"/><text x="4.04" y="375.77" class="st8">vvp_stream_adapters:: <tspan x="19.44" class="st3" dy="1.2em">ReadFrameFromPipe</tspan></text></g><g id="shape1058-168" transform="translate(106.299,778.054) rotate(180)"><title>Sheet.1058</title><desc>Streaming Sink</desc><rect width="62.362" height="30.067" x="0" y="373.993" class="st12"/><text x="-58.23" y="-392.63" class="st14" transform="rotate(180)">Streaming <tspan x="-42.2" class="st3" dy="1.2em">Sink</tspan></text></g></g><g id="shape1069-172" transform="translate(373.905,-178.583)"><title>Dynamic connector.1069</title><desc>Ready</desc><path d="M0 404.06 L-58.37 404.06 L-58.37 367.17" class="st15"/><rect width="21.621" height="9.6" x="-61.461" y="399.261" class="st17"/><text x="-61.46" y="406.46" class="st18">Ready</text></g><g id="shape1070-179" transform="translate(303.345,-221.513)"><title>Dynamic connector.1070</title><desc>Valid</desc><path d="M0 404.06 L0 461.16 L64.52 461.16" class="st15"/><rect width="17.625" height="9.6" x="-2.084" y="456.364" class="st17"/><text x="-2.08" y="463.56" class="st18">Valid</text></g><g id="shape1071-186" transform="translate(289.171,-221.513)"><title>Dynamic connector.1071</title><desc>Data</desc><path d="M0 404.06 L0 475.34 L78.69 475.34" class="st15"/><rect width="16.46" height="9.6" x="-1.502" y="470.537" class="st19"/><text x="-1.5" y="477.74" class="st18">Data</text></g><g id="shape1072-193" transform="translate(274.998,-221.513)"><title>Dynamic connector.1072</title><desc>SOP/EOP</desc><path d="M0 404.06 L0 487.53 L92.87 487.53" class="st15"/><rect width="32.437" height="9.6" x="-8.498" y="482.726" class="st19"/><text x="-8.5" y="489.93" class="st18">SOP/EOP</text></g><g id="group1073-200" transform="translate(214.407,-221.513)"><title>Sheet.1073</title><g id="shape1002-201" transform="translate(-7.08661,-30.8167)"><title>Rectangle.1002</title><desc>vvp_stream_adapters:: WriteFrameToPipe</desc><rect width="175.039" height="48.189" x="0" y="355.872" class="st7"/><text x="6.7" y="375.77" class="st8">vvp_stream_adapters:: <tspan x="25.94" class="st3" dy="1.2em">WriteFrameToPipe</tspan></text></g><g id="shape1068-205" transform="translate(111.614,778.054) rotate(180)"><title>Sheet.1068</title><desc>Streaming Source</desc><rect width="62.362" height="30.067" x="0" y="373.993" class="st12"/><text x="-58.23" y="-392.63" class="st14" transform="rotate(180)">Streaming <tspan x="-49.27" class="st3" dy="1.2em">Source</tspan></text></g></g><g id="shape1074-209" transform="translate(610.195,-166.946)"><title>Dynamic connector.1074</title><path d="M0 404.06 L76.22 442.03" class="st21"/></g><g id="shape1075-212" transform="translate(839.553,-128.976)"><title>Dynamic connector.1075</title><path d="M0 404.06 L-229.36 366.09" class="st21"/></g><g id="shape1086-215" transform="translate(17.2579,-19.8425)"><title>Rectangle.1086</title><desc>Pixel_rgb</desc><rect width="65.197" height="28.346" x="0" y="375.714" class="st12"/><text x="12.77" y="392.89" class="st13">Pixel_rgb</text></g><g id="shape1087-218" transform="translate(98.0453,-19.8425)"><title>Rectangle.1087</title><desc>Pixel_rgb</desc><rect width="65.197" height="28.346" x="0" y="375.714" class="st12"/><text x="12.77" y="392.89" class="st13">Pixel_rgb</text></g><g id="shape1088-221" transform="translate(178.833,-19.8425)"><title>Sheet.1088</title><desc>...</desc><rect width="31.323" height="28.346" x="0" y="375.714" class="st12"/><text x="11.76" y="393.49" class="st14">...</text></g><g id="shape1089-224" transform="translate(225.746,-18.4252)"><title>Square.1089</title><desc>SoP</desc><rect width="28.346" height="28.346" x="0" y="375.714" class="st12"/><text x="5.79" y="392.89" class="st13">SoP</text></g><g id="shape1090-227" transform="translate(269.683,-18.4252)"><title>Square.1090</title><desc>EoP</desc><rect width="28.346" height="28.346" x="0" y="375.714" class="st12"/><text x="5.91" y="392.89" class="st13">EoP</text></g><g id="shape1091-230" transform="translate(76.8209,-128.976)"><title>Dynamic connector.1091</title><path d="M0 404.06 L212.35 366.09" class="st21"/></g><g id="shape1092-233" transform="translate(229.963,-128.976)"><title>Dynamic connector.1092</title><path d="M0 404.06 L59.21 366.09" class="st21"/></g></g></svg>